<?xml version="1.0" encoding="utf-8"?>
<!-- Generator: Adobe Illustrator 21.0.0, SVG Export Plug-In . SVG Version: 6.00 Build 0)  -->
<svg version="1.1" id="Layer_1" xmlns="http://www.w3.org/2000/svg" xmlns:xlink="http://www.w3.org/1999/xlink" x="0px" y="0px"
	 width="478.8px" height="498.7px" viewBox="0 0 478.8 498.7" style="enable-background:new 0 0 478.8 498.7;" xml:space="preserve"
	>
<style type="text/css">
	.st0{fill:#C0472C;}
	.st1{fill:#AA372B;}
	.st2{fill:#D56D5D;}
	.st3{fill:#00B4FF;}
	.st4{fill:#568AB8;}
	.st5{fill:#7FB1D9;}
	.st6{fill:#EBB830;}
	.st7{fill:#D3A135;}
	.st8{fill:#F4C70C;}
	.st9{clip-path:url(#SVGID_2_);}
	.st10{fill:#E2E3E3;}
	.st11{fill:#DC963E;}
	.st12{clip-path:url(#SVGID_4_);}
	.st13{fill:#CC4E42;}
	.st14{clip-path:url(#SVGID_6_);}
	.st15{fill:#76ADB4;}
	.st16{fill:#8EC9D6;}
	.st17{fill:#FFFFFF;}
	.st18{fill-rule:evenodd;clip-rule:evenodd;fill:#D4A770;}
	.st19{fill-rule:evenodd;clip-rule:evenodd;fill:#E7C496;}
	.st20{fill-rule:evenodd;clip-rule:evenodd;fill:#FFFFFF;}
	.st21{fill-rule:evenodd;clip-rule:evenodd;fill:#E4E4E4;}
	.st22{fill-rule:evenodd;clip-rule:evenodd;fill:#F5DDBE;}
	.st23{fill:#F5DA97;}
	.st24{fill:#4F4F4F;}
	.st25{fill-rule:evenodd;clip-rule:evenodd;fill:#F5DA97;}
	.st26{fill-rule:evenodd;clip-rule:evenodd;fill:#5D90BD;}
	.st27{fill-rule:evenodd;clip-rule:evenodd;fill:#689CD3;}
	.st28{fill:#D9CF3B;}
	.st29{fill:#1F3A4C;}
	.st30{fill:#141D24;}
	.st31{fill:#2C4E68;}
	.st32{fill:#19303E;}
	.st33{opacity:0.1;}
	.st34{fill:#243F4D;}
	.st35{fill:#9DCFD6;}
	.st36{fill:#689498;}
	.st37{fill:#B8402C;}
	.st38{fill:#D0512A;}
	.st39{fill-rule:evenodd;clip-rule:evenodd;fill:#00B4FF;}
	.st40{fill-rule:evenodd;clip-rule:evenodd;fill:#862124;}
	.st41{fill-rule:evenodd;clip-rule:evenodd;fill:#4F5153;}
	.st42{fill-rule:evenodd;clip-rule:evenodd;fill:#808082;}
	.st43{fill-rule:evenodd;clip-rule:evenodd;fill:#EEEEEF;}
	.st44{fill-rule:evenodd;clip-rule:evenodd;fill:#CECFD0;}
	.st45{fill-rule:evenodd;clip-rule:evenodd;fill:#B1262A;}
	.st46{fill-rule:evenodd;clip-rule:evenodd;fill:#59595B;}
	.st47{fill-rule:evenodd;clip-rule:evenodd;fill:#A6BCCC;}
	.st48{fill-rule:evenodd;clip-rule:evenodd;fill:#B6CFDE;}
	.st49{fill-rule:evenodd;clip-rule:evenodd;fill:#CBDDEB;}
	.st50{fill-rule:evenodd;clip-rule:evenodd;fill:#909294;}
	.st51{fill:#E8E9E9;}
	.st52{fill:#2F3140;}
	.st53{fill:#8D93AE;}
	.st54{fill:#CC2E40;}
	.st55{fill:#B1262A;}
	.st56{fill:#E5A630;}
	.st57{fill-rule:evenodd;clip-rule:evenodd;fill:#F4C70C;}
	.st58{fill-rule:evenodd;clip-rule:evenodd;fill:#A8C8E3;}
	.st59{fill-rule:evenodd;clip-rule:evenodd;fill:#CBCAC9;}
	.st60{fill-rule:evenodd;clip-rule:evenodd;fill:#8EC9D6;}
	.st61{fill:#94CDE0;}
	.st62{fill:#79BA92;}
</style>
<g>
	<g>
		<path class="st0" d="M192.1,126.5c-1.4-1.1-4-2-6-2h-38.4c-1.7,0-4.3,0.9-5.7,2l-23.6,18.7c-1.4,1.1-2.6,3.2-2.6,4.5v43.4
			c0,1.6,1.1,3.6,2.3,4.7l23.9,18.7c1.1,1.1,4,2,5.7,2h25.9c2,0,4.6,0.7,5.7,1.8l6.3,4.7c1.4,1.1,2.3,3.2,2.3,4.7v30.8
			c0,1.6-0.9,3.6-2.3,4.7l-6,4.7c-1.4,0.9-4,1.8-6,1.8h-13.4c-1.7,0-4.3-0.9-5.7-1.8l-6-4.7c-1.4-1.1-2.6-3.2-2.6-4.7v-18.9
			c0-1.6-1.4-2.7-3.4-2.7h-23.3c-1.7,0-3.4,1.1-3.4,2.7v28.8c0,1.4,1.1,3.6,2.6,4.5L142,294c1.4,0.9,4,1.8,5.7,1.8h38.4
			c2,0,4.6-0.9,6-1.8l23.6-18.9c1.1-0.9,2.3-3.2,2.3-4.5v-50.6c0-1.6-1.1-3.6-2.3-4.7l-23.9-18.7c-1.1-0.9-4-1.8-5.7-1.8h-25.9
			c-2,0-4.6-0.9-5.7-2l-6.3-4.7c-1.1-0.9-2.3-3.2-2.3-4.5v-23.9c0-1.4,1.1-3.6,2.6-4.5l6-5c1.4-0.9,4-1.8,5.7-1.8h13.4
			c2,0,4.6,0.9,6,1.8l6,5c1.4,0.9,2.3,3.2,2.3,4.5v13.5c0,1.6,1.7,2.7,3.4,2.7h23.3c2,0,3.4-1.1,3.4-2.7v-23.4
			c0-1.4-1.1-3.4-2.3-4.5L192.1,126.5z"/>
	</g>
	<g>
		<g>
			<path class="st1" d="M148.7,155.1l6-5c1.4-0.9,4-1.8,5.7-1.8h-6c-1.7,0-4.3,0.9-5.7,1.8l-6,5c-1.4,0.9-2.6,3.2-2.6,4.5v23.9
				c0,1.4,1.1,3.6,2.3,4.5l6.3,4.7c1.1,1.1,3.7,2,5.7,2h6c-2,0-4.6-0.9-5.7-2l-6.3-4.7c-1.1-0.9-2.3-3.2-2.3-4.5v-23.9
				C146.1,158.3,147.3,156,148.7,155.1z"/>
		</g>
		<g>
			<path class="st1" d="M148.7,265.4c-1.4-1.1-2.6-3.2-2.6-4.7v-18.9c0-1.6-1.4-2.7-3.4-2.7h-6c2,0,3.4,1.1,3.4,2.7v18.9
				c0,1.6,1.1,3.6,2.6,4.7l6,4.7c1.4,0.9,4,1.8,5.7,1.8h6c-1.7,0-4.3-0.9-5.7-1.8L148.7,265.4z"/>
		</g>
		<g>
			<path class="st1" d="M191.9,196.5c-1.1-0.9-4-1.8-5.7-1.8h-6c1.7,0,4.6,0.9,5.7,1.8l23.9,18.7c1.1,1.1,2.3,3.2,2.3,4.7v50.6
				c0,1.4-1.1,3.6-2.3,4.5L186.2,294c-1.4,0.9-4,1.8-6,1.8h6c2,0,4.6-0.9,6-1.8l23.6-18.9c1.1-0.9,2.3-3.2,2.3-4.5v-50.6
				c0-1.6-1.1-3.6-2.3-4.7L191.9,196.5z"/>
		</g>
		<g>
			<path class="st1" d="M215.8,145.2l-23.6-18.7c-1.4-1.1-4-2-6-2h-6c2,0,4.6,0.9,6,2l23.6,18.7c1.1,1.1,2.3,3.2,2.3,4.5v23.4
				c0,1.6-1.4,2.7-3.4,2.7h6c2,0,3.4-1.1,3.4-2.7v-23.4C218.1,148.3,217,146.3,215.8,145.2z"/>
		</g>
	</g>
	<g>
		<g>
			<path class="st2" d="M193.6,225.1l-6.3-4.7c-1.1-1.1-3.7-1.8-5.7-1.8h-8c2,0,4.6,0.7,5.7,1.8l6.3,4.7c1.4,1.1,2.3,3.2,2.3,4.7
				v30.8c0,1.6-0.9,3.6-2.3,4.7l-6,4.7c-1.4,0.9-4,1.8-6,1.8h8c2,0,4.6-0.9,6-1.8l6-4.7c1.4-1.1,2.3-3.2,2.3-4.7v-30.8
				C195.9,228.2,195,226.2,193.6,225.1z"/>
		</g>
		<g>
			<path class="st2" d="M185.6,155.1c1.4,0.9,2.3,3.2,2.3,4.5v13.5c0,1.6,1.7,2.7,3.4,2.7h8c-1.7,0-3.4-1.1-3.4-2.7v-13.5
				c0-1.4-0.9-3.6-2.3-4.5l-6-5c-1.4-0.9-4-1.8-6-1.8h-8c2,0,4.6,0.9,6,1.8L185.6,155.1z"/>
		</g>
		<g>
			<path class="st2" d="M126.4,275.1c-1.4-0.9-2.6-3.2-2.6-4.5v-28.8c0-1.6,1.7-2.7,3.4-2.7h-8c-1.7,0-3.4,1.1-3.4,2.7v28.8
				c0,1.4,1.1,3.6,2.6,4.5L142,294c1.4,0.9,4,1.8,5.7,1.8h8c-1.7,0-4.3-0.9-5.7-1.8L126.4,275.1z"/>
		</g>
		<g>
			<path class="st2" d="M126.4,145.2l23.6-18.7c1.4-1.1,4-2,5.7-2h-8c-1.7,0-4.3,0.9-5.7,2l-23.6,18.7c-1.4,1.1-2.6,3.2-2.6,4.5
				v43.4c0,1.6,1.1,3.6,2.3,4.7l23.9,18.7c1.1,1.1,4,2,5.7,2h8c-1.7,0-4.6-0.9-5.7-2l-23.9-18.7c-1.1-1.1-2.3-3.2-2.3-4.7v-43.4
				C123.9,148.3,125,146.3,126.4,145.2z"/>
		</g>
	</g>
	<g>
		<g>
			<path class="st3" d="M313.1,124.7h-80.3c-2,0-3.4,1.1-3.4,2.7v165.6c0,1.6,1.4,2.7,3.4,2.7h80.3c1.7,0,3.4-1.1,3.4-2.7v-18.5
				c0-1.6-1.7-2.7-3.4-2.7h-50.1c-2,0-3.4-1.1-3.4-2.7v-56.7c0-1.4,1.4-2.7,3.4-2.7h37.8c1.7,0,3.4-1.1,3.4-2.7v-18.5
				c0-1.4-1.7-2.7-3.4-2.7h-37.8c-2,0-3.4-1.1-3.4-2.7v-32c0-1.6,1.4-2.7,3.4-2.7h50.1c1.7,0,3.4-1.1,3.4-2.7v-18.5
				C316.6,125.8,314.9,124.7,313.1,124.7z"/>
		</g>
		<g>
			<g>
				<path class="st4" d="M301,185.9h-6c1.7,0,3.4,1.4,3.4,2.7v18.5c0,1.6-1.7,2.7-3.4,2.7h6c1.7,0,3.4-1.1,3.4-2.7v-18.5
					C304.4,187.3,302.7,185.9,301,185.9z"/>
			</g>
			<g>
				<path class="st4" d="M263.2,148.6h-6c-2,0-3.4,1.1-3.4,2.7v32c0,1.6,1.4,2.7,3.4,2.7h6c-2,0-3.4-1.1-3.4-2.7v-32
					C259.7,149.7,261.2,148.6,263.2,148.6z"/>
			</g>
			<g>
				<path class="st4" d="M263.2,209.8h-6c-2,0-3.4,1.4-3.4,2.7v56.7c0,1.6,1.4,2.7,3.4,2.7h6c-2,0-3.4-1.1-3.4-2.7v-56.7
					C259.7,211.1,261.2,209.8,263.2,209.8z"/>
			</g>
			<g>
				<path class="st4" d="M313.2,271.9h-6c1.7,0,3.4,1.1,3.4,2.7v18.5c0,1.6-1.7,2.7-3.4,2.7h6c1.7,0,3.4-1.1,3.4-2.7v-18.5
					C316.7,273,314.9,271.9,313.2,271.9z"/>
			</g>
			<g>
				<path class="st4" d="M313.2,124.7h-6c1.7,0,3.4,1.1,3.4,2.7v18.5c0,1.6-1.7,2.7-3.4,2.7h6c1.7,0,3.4-1.1,3.4-2.7v-18.5
					C316.7,125.8,314.9,124.7,313.2,124.7z"/>
			</g>
		</g>
		<g>
			<path class="st5" d="M237.5,293.1V127.4c0-1.6,1.4-2.7,3.4-2.7h-8c-2,0-3.4,1.1-3.4,2.7v165.6c0,1.6,1.4,2.7,3.4,2.7h8
				C238.9,295.8,237.5,294.6,237.5,293.1z"/>
		</g>
	</g>
	<g>
		<g>
			<path class="st6" d="M461.9,145.2L438,126.5c-1.1-1.1-3.7-1.8-5.7-1.8h-38.4c-1.7,0-4.6,0.7-5.7,1.8l-23.9,18.7
				c-1.1,1.1-2.3,3.2-2.3,4.7v120.6c0,1.4,1.1,3.6,2.3,4.5l23.9,18.9c1.1,0.9,4,1.8,5.7,1.8h38.4c2,0,4.6-0.9,5.7-1.8l23.9-18.9
				c1.1-0.9,2.3-3.2,2.3-4.5V149.9C464.2,148.3,463,146.3,461.9,145.2z M434.3,260.7c0,1.4-1.1,3.6-2.6,4.5l-6,5
				c-1.4,0.9-4,1.8-6,1.8h-13.4c-1.7,0-4.6-0.9-5.7-1.8l-6.3-5c-1.1-0.9-2.3-3.2-2.3-4.5V159.8c0-1.6,1.1-3.6,2.3-4.7l6.3-4.7
				c1.1-1.1,4-2,5.7-2h13.4c2,0,4.6,0.9,6,2l6,4.7c1.4,1.1,2.6,3.2,2.6,4.7V260.7z"/>
		</g>
		<g>
			<g>
				<path class="st7" d="M394.5,155.1l6.3-4.7c1.1-1.1,4-2,5.7-2h-6c-1.7,0-4.6,0.9-5.7,2l-6.3,4.7c-1.1,1.1-2.3,3.2-2.3,4.7v100.8
					c0,1.4,1.1,3.6,2.3,4.5l6.3,5c1.1,0.9,4,1.8,5.7,1.8h6c-1.7,0-4.6-0.9-5.7-1.8l-6.3-5c-1.1-0.9-2.3-3.2-2.3-4.5V159.8
					C392.3,158.3,393.4,156.2,394.5,155.1z"/>
			</g>
			<g>
				<path class="st7" d="M462,145.2l-23.9-18.7c-1.1-1.1-3.7-1.8-5.7-1.8h-6c2,0,4.6,0.7,5.7,1.8l23.9,18.7c1.1,1.1,2.3,3.2,2.3,4.7
					v120.6c0,1.4-1.1,3.6-2.3,4.5L432.1,294c-1.1,0.9-3.7,1.8-5.7,1.8h6c2,0,4.6-0.9,5.7-1.8l23.9-18.9c1.1-0.9,2.3-3.2,2.3-4.5
					V149.9C464.3,148.3,463.1,146.3,462,145.2z"/>
			</g>
		</g>
		<g>
			<g>
				<path class="st8" d="M439.7,155.1l-6-4.7c-1.4-1.1-4-2-6-2h-8c2,0,4.6,0.9,6,2l6,4.7c1.4,1.1,2.6,3.2,2.6,4.7v100.8
					c0,1.4-1.1,3.6-2.6,4.5l-6,5c-1.4,0.9-4,1.8-6,1.8h8c2,0,4.6-0.9,6-1.8l6-5c1.4-0.9,2.6-3.2,2.6-4.5V159.8
					C442.3,158.3,441.2,156.2,439.7,155.1z"/>
			</g>
			<g>
				<path class="st8" d="M372.3,145.2l23.9-18.7c1.1-1.1,4-1.8,5.7-1.8h-8c-1.7,0-4.6,0.7-5.7,1.8l-23.9,18.7
					c-1.1,1.1-2.3,3.2-2.3,4.7v120.6c0,1.4,1.1,3.6,2.3,4.5l23.9,18.9c1.1,0.9,4,1.8,5.7,1.8h8c-1.7,0-4.6-0.9-5.7-1.8l-23.9-18.9
					c-1.1-0.9-2.3-3.2-2.3-4.5V149.9C370,148.3,371.2,146.3,372.3,145.2z"/>
			</g>
		</g>
	</g>
</g>
<g>
	<g>
		<g>
			<defs>
				<path id="SVGID_1_" d="M313.5,476.5l-47.9,16.6l-41.3-9.3c0,0-4.5-7.5,0.9-13.3l39.7,8.7l48.8-16.6
					C313.7,462.6,309.8,467.7,313.5,476.5z"/>
			</defs>
			<use xlink:href="#SVGID_1_"  style="overflow:visible;fill:#FFFFFF;"/>
			<clipPath id="SVGID_2_">
				<use xlink:href="#SVGID_1_"  style="overflow:visible;"/>
			</clipPath>
			<g class="st9">
				<polygon class="st10" points="318.1,460.3 265.4,477.2 265.4,498.7 317.1,480.7 				"/>
			</g>
		</g>
		<g>
			<g>
				<path class="st8" d="M265.7,494.9l48.4-16.8c0.9-0.3,1.4-1.3,1.1-2.2c-0.3-0.9-1.3-1.4-2.2-1.1l-47.5,16.5l-40-9
					c-0.8-1.6-2.5-6.1,0.4-9.8l39.2,8.6l49.3-16.8c0.9-0.3,1.4-1.3,1.1-2.2c-0.3-0.9-1.3-1.4-2.2-1.1l-48.3,16.5l-40.2-8.9l-0.7,0.7
					c-5,5.3-2.9,12.4-1.1,15.4l0.4,0.6L265.7,494.9z"/>
			</g>
		</g>
		<g>
			<path class="st11" d="M224.6,468.6c0,0,42.8-12.4,42.9-12.5c0.1-0.1,46.3,4.8,46.3,4.8l-49,17.3L224.6,468.6z"/>
		</g>
	</g>
	<g>
		<g>
			<g>
				<defs>
					<path id="SVGID_3_" d="M313.5,459.2l-47.9,16.6l-41.3-9.3c0,0-4.5-7.5,0.9-13.3l39.7,8.7l48.8-16.6
						C313.7,445.4,309.8,450.5,313.5,459.2z"/>
				</defs>
				<use xlink:href="#SVGID_3_"  style="overflow:visible;fill:#FFFFFF;"/>
				<clipPath id="SVGID_4_">
					<use xlink:href="#SVGID_3_"  style="overflow:visible;"/>
				</clipPath>
				<g class="st12">
					<polygon class="st10" points="317.8,444.2 265.1,461.1 265.1,482.7 316.8,464.7 					"/>
				</g>
			</g>
			<g>
				<g>
					<path class="st3" d="M265.7,477.7l48.4-16.8c0.9-0.3,1.4-1.3,1.1-2.2c-0.3-0.9-1.3-1.4-2.2-1.1L265.5,474l-40-9
						c-0.8-1.6-2.5-6.1,0.4-9.8l39.2,8.6l49.3-16.8c0.9-0.3,1.4-1.3,1.1-2.2c-0.3-0.9-1.3-1.4-2.2-1.1l-48.3,16.5l-40.2-8.9
						l-0.7,0.7c-5,5.3-2.9,12.4-1.1,15.4l0.4,0.6L265.7,477.7z"/>
				</g>
			</g>
			<g>
				<path class="st13" d="M224.6,451.4c0,0,42.8-12.4,42.9-12.5c0.1-0.1,46.3,4.8,46.3,4.8l-49,17.3L224.6,451.4z"/>
			</g>
		</g>
	</g>
	<g>
		<g>
			<g>
				<defs>
					<path id="SVGID_5_" d="M313.5,442.7l-47.9,16.6l-41.3-9.3c0,0-4.5-7.5,0.9-13.3l39.7,8.7l48.8-16.6
						C313.7,428.8,309.8,433.9,313.5,442.7z"/>
				</defs>
				<use xlink:href="#SVGID_5_"  style="overflow:visible;fill:#FFFFFF;"/>
				<clipPath id="SVGID_6_">
					<use xlink:href="#SVGID_5_"  style="overflow:visible;"/>
				</clipPath>
				<g class="st14">
					<polygon class="st10" points="318,424.8 265.3,441.7 265.3,463.3 317,445.3 					"/>
				</g>
			</g>
			<g>
				<g>
					<path class="st15" d="M265.7,461.1l48.4-16.8c0.9-0.3,1.4-1.3,1.1-2.2c-0.3-0.9-1.3-1.4-2.2-1.1l-47.5,16.5l-40-9
						c-0.8-1.6-2.5-6.1,0.4-9.8l39.2,8.6l49.3-16.8c0.9-0.3,1.4-1.3,1.1-2.2c-0.3-0.9-1.3-1.4-2.2-1.1l-48.3,16.5l-40.2-8.9
						l-0.7,0.7c-5,5.3-2.9,12.4-1.1,15.4l0.4,0.6L265.7,461.1z"/>
				</g>
			</g>
			<g>
				<path class="st16" d="M224.6,434.8c0,0,42.8-12.4,42.9-12.5c0.1-0.1,46.3,4.8,46.3,4.8l-49,17.3L224.6,434.8z"/>
			</g>
		</g>
	</g>
</g>
<g>
	<g>
		<g>
			<g>
				<path class="st17" d="M188.2,225.9c-15.4-8.5-34.7-2.9-43.2,12.4c-8.5,15.4-3,34.7,12.4,43.2c15.4,8.5,34.7,3,43.2-12.4
					C209.2,253.7,203.6,234.4,188.2,225.9z"/>
			</g>
			<g>
				<path class="st18" d="M152.6,322L152.6,322c2.4-3.1,1.8-7.8-1.4-10.1l-30.6-21.8c-3.2-2.3-7.7-1.8-10.1,1.4l0,0
					c-2.4,3.1-1.8,7.7,1.4,10.1l30.6,21.8C145.8,325.6,150.2,325.1,152.6,322z"/>
			</g>
			<g>
				<path class="st18" d="M139.1,330.4L139.1,330.4c2.9-2.7,3.1-7.4,0.3-10.2l-26.8-26.4c-2.8-2.8-7.3-3-10.2-0.3l0,0
					c-2.9,2.7-3,7.3-0.3,10.2l26.8,26.4C131.7,332.9,136.2,333.1,139.1,330.4z"/>
			</g>
			<g>
				<polygon class="st18" points="73.9,330.6 90.8,287.3 128.1,286.5 145.8,303.1 97.3,338.9 				"/>
			</g>
			<g>
				<path class="st18" d="M124.2,338.4L124.2,338.4c3.5-1.8,5-6.3,3-9.7L108.6,296c-1.9-3.4-6.2-4.8-9.7-3l0,0
					c-3.5,1.8-4.8,6.2-3,9.7l18.6,32.7C116.4,338.8,120.7,340.2,124.2,338.4z"/>
			</g>
			<g>
				<path class="st19" d="M80.3,321.1c-14.7,3-17.5,26.2-11.1,34.8c6.5,8.6,20.7,7.9,33.2-0.5c12.5-8.4,13.9-23.4,10.4-27.8
					C109.2,323.2,94.9,318.1,80.3,321.1z"/>
			</g>
			<g>
				<path class="st19" d="M70.1,337.3L70.1,337.3c3.4,2.1,8.6,1.3,9.9-2.4l16-45.3c1.3-3.7,1-7.8-2.4-9.9l0,0
					c-3.4-2.1-7.8-1-9.9,2.4l-16,45.3C66.4,331.2,66.7,335.3,70.1,337.3z"/>
			</g>
			<g>
				<path class="st19" d="M128.4,281.7L128.4,281.7c-0.5-3.9-4.2-6.6-8.1-6.1l-30.8,3.1c-3.9,0.4-6.7,4.2-6.1,8.1l0,0
					c0.5,3.9,4.2,6.7,8.1,6.1l30.8-3.1C126.2,289.4,128.9,285.7,128.4,281.7z"/>
			</g>
			<g>
				<path class="st19" d="M161.6,305.1L161.6,305.1c2-3.4,1-7.9-2.4-9.9l-32.8-18.4c-3.4-1.9-7.8-0.9-9.9,2.4l0,0
					c-2,3.4-0.9,7.8,2.4,9.9l32.8,18.4C155.2,309.4,159.5,308.5,161.6,305.1z"/>
			</g>
			<g>
				<path class="st19" d="M104.4,292.1c-3.2,6-15.4,30.3,1.8,30.4c17.1,0.2-21.5,21.9-21.5,21.9l-10-26.2
					C74.7,318.3,77.9,282.2,104.4,292.1z"/>
			</g>
			<g>
				<polygon class="st19" points="74,319.3 97.8,346.8 83.2,364 56.4,339.1 				"/>
			</g>
			<g>
				
					<rect x="52.3" y="335.6" transform="matrix(0.6741 -0.7386 0.7386 0.6741 -243.9131 164.8953)" class="st20" width="25.2" height="46.6"/>
			</g>
			<g>
				
					<rect x="60.9" y="355.1" transform="matrix(0.6741 -0.7386 0.7386 0.6741 -246.9048 173.8047)" class="st21" width="25.2" height="23.3"/>
			</g>
			<g>
				<path class="st22" d="M162.2,298.8c-0.5-1.5-1.6-2.8-3-3.6l-4.7-2.6c-0.1,1-0.2,2-0.1,3.1l3,1.9
					C159.1,298.7,160.7,299.1,162.2,298.8z"/>
			</g>
			<g>
				<g>
					
						<rect x="133.3" y="290.3" transform="matrix(0.4848 -0.8746 0.8746 0.4848 -180.7154 283.1396)" class="st23" width="33.3" height="9.3"/>
				</g>
				<g>
					<path class="st24" d="M172.8,225.9c-9.8,0-19.3,5.2-24.3,14.4c-7.5,13.5-2.6,30.4,10.9,37.8l0,0c4.3,2.4,8.9,3.5,13.5,3.5v6.4
						c-5.6,0-11.3-1.4-16.6-4.3c-16.5-9.2-22.5-30-13.4-46.5c6.2-11.3,17.9-17.6,29.9-17.6V225.9z M202.8,270.3
						c-6.2,11.3-17.9,17.6-29.9,17.7v-6.4c9.8,0,19.3-5.2,24.4-14.4c7.4-13.4,2.6-30.4-10.9-37.8c-4.3-2.4-8.9-3.5-13.5-3.5v-6.4
						c5.6,0,11.3,1.4,16.6,4.3C205.9,232.9,211.9,253.7,202.8,270.3z"/>
				</g>
				<g>
					
						<ellipse transform="matrix(0.8883 -0.4592 0.4592 0.8883 -116.5691 102.4081)" class="st25" cx="152.3" cy="290.9" rx="4.6" ry="4.6"/>
				</g>
				<g>
					<path class="st24" d="M140.5,326.7c-2,3.6-6.5,4.9-10.1,2.9c-3.6-2-4.9-6.5-2.9-10.1l15.2-27.5c2-3.6,6.5-4.9,10.1-2.9
						c3.6,2,4.9,6.5,2.9,10.1L140.5,326.7z"/>
				</g>
			</g>
			<g>
				<path class="st19" d="M100.6,334.7L100.6,334.7c2.2,4.1,7.5,5.9,11.4,3.5l35.4-22.3c3.9-2.5,5.6-7.3,3.5-11.4l0,0
					c-2.2-4.1-7.3-5.6-11.4-3.5l-35.4,22.3C100.1,325.8,98.4,330.6,100.6,334.7z"/>
			</g>
			<g>
				<path class="st22" d="M139.5,302.9l-3,2.2c0,5.5,2.8,9,7.9,10.6l2.9-2.1C155.2,308,145.8,298,139.5,302.9z"/>
			</g>
		</g>
	</g>
	<g>
		<polygon class="st26" points="42.2,345 80.9,380.3 38.7,425.4 0,390.1 		"/>
	</g>
	<g>
		<polygon class="st27" points="19.9,408.3 0,390.1 42.2,345 62.1,363.1 		"/>
	</g>
</g>
<g>
	<g>
		<g>
			<g>
				<g>
					<g>
						<path class="st28" d="M434.3,81.5c2.2-3.5,3.5-7.6,3.6-12c0.3-13.1-10-24-23.1-24.3c-13.1-0.3-24,10-24.3,23.1
							c-0.1,4.4,1,8.6,3,12.2l-0.1,0c9.4,15.3,8.2,22.2,8.2,22.2l11.7,0.3l11.7,0.3C425.2,103.2,424.3,96.3,434.3,81.5L434.3,81.5z"
							/>
					</g>
				</g>
				<g>
					<g>
						<path class="st29" d="M402.4,73.8c1-0.4,2.1-0.7,3.2-1l0.1,0l0.1,0.1c0.6,0.4,1.2,0.8,1.8,1.2l-0.5,0l2-2.2l0.3-0.4l0.4,0.3
							c1.1,1,2.2,2,3.3,3l-0.8,0c1.3-1.2,2.5-2.5,3.8-3.7l0.6-0.6l0.4,0.7l1.5,3l-1-0.1l0.8-1l0.4-0.5l0.4,0.4l1.2,1.2l-0.7,0.1
							l1.9-2l0.2-0.2l0.2,0.1c1.3,0.7,2.6,1.4,3.9,2.2c-1.4-0.5-2.8-1.1-4.2-1.6l0.4-0.1l-1.7,2.2l-0.3,0.4l-0.4-0.3l-1.3-1l0.8-0.1
							l-0.7,1.1l-0.5,0.8l-0.4-0.8l-1.6-2.9l1,0.2c-1.2,1.2-2.5,2.5-3.8,3.6l-0.4,0.4l-0.4-0.4c-1.1-1-2.1-2.1-3.2-3.1l0.7,0l-2.2,2
							l-0.3,0.2l-0.2-0.2c-0.5-0.4-1.1-0.9-1.6-1.3l0.2,0C404.6,73.4,403.5,73.6,402.4,73.8z"/>
					</g>
				</g>
				<g>
					<g>
						
							<rect x="404.8" y="73.5" transform="matrix(0.9838 -0.1791 0.1791 0.9838 -9.4446 74.0392)" class="st30" width="0.9" height="31.6"/>
					</g>
				</g>
				<g>
					<g>
						<path class="st30" d="M404.2,73.8c0,1-0.9,1.8-1.9,1.8c-1,0-1.8-0.9-1.8-1.9c0-1,0.9-1.8,1.9-1.8
							C403.5,72,404.3,72.8,404.2,73.8z"/>
					</g>
				</g>
				<g>
					<g>
						
							<rect x="406.5" y="89.3" transform="matrix(0.2287 -0.9735 0.9735 0.2287 238.3641 480.3237)" class="st30" width="31.6" height="0.9"/>
					</g>
				</g>
				<g>
					<g>
						
							<ellipse transform="matrix(2.473306e-02 -0.9997 0.9997 2.473306e-02 341.0589 498.2563)" class="st30" cx="425.9" cy="74.3" rx="1.8" ry="1.8"/>
					</g>
				</g>
				<g>
					<g>
						<g>
							<polygon class="st29" points="413.5,102.9 401.7,102.6 401.6,108.7 404,113.1 413.2,113.3 422.4,113.5 425,109.3 
								425.2,103.2 							"/>
						</g>
					</g>
					<g>
						<g>
							<g>
								<path class="st30" d="M426.4,105.3c0,0.6-0.4,1-1,1l-24-0.6c-0.5,0-0.9-0.5-0.9-1l0,0c0-0.6,0.5-1,1-1l24,0.6
									C426,104.3,426.4,104.8,426.4,105.3L426.4,105.3z"/>
							</g>
						</g>
						<g>
							<g>
								<path class="st30" d="M426.3,109.3c0,0.6-0.5,1-1,1l-24-0.6c-0.5,0-0.9-0.5-0.9-1l0,0c0-0.6,0.5-1,1-1l24,0.6
									C425.9,108.3,426.3,108.7,426.3,109.3L426.3,109.3z"/>
							</g>
						</g>
						<g>
							<g>
								<path class="st30" d="M423.9,113.6c0,0.5-0.4,0.8-0.8,0.8l-19.8-0.5c-0.4,0-0.8-0.4-0.8-0.8l0,0c0-0.5,0.4-0.8,0.8-0.8
									l19.8,0.5C423.5,112.7,423.9,113.1,423.9,113.6L423.9,113.6z"/>
							</g>
						</g>
					</g>
				</g>
			</g>
		</g>
		<g>
			<g>
				<g>
					<g>
						<path class="st8" d="M413.3,102.9l1.4-57.8c-13-0.2-23.8,10.1-24.1,23.1c-0.1,4.4,1,8.6,3,12.2l-0.1,0
							c9.4,15.3,8.2,22.2,8.2,22.2L413.3,102.9z"/>
					</g>
				</g>
				<g>
					<g>
						<path class="st31" d="M414,73.1c-0.4,0.4-0.9,0.8-1.3,1.3c-1-0.9-1.9-1.8-2.9-2.6l-0.4-0.3l-0.3,0.4l-1.8,2
							c-0.5-0.3-1-0.7-1.5-1l-0.1-0.1l-0.1,0c-1.1,0.3-2.1,0.7-3.2,1c1.1-0.1,2.1-0.3,3.2-0.5c0.5,0.4,1,0.9,1.6,1.3l0.2,0.2
							l0.3-0.2l1.8-1.7c0.9,0.9,1.9,1.8,2.8,2.8l0.4,0.4l0.4-0.4c0.3-0.3,0.6-0.5,0.9-0.8L414,73.1z"/>
					</g>
				</g>
				<g>
					<g>
						
							<rect x="404.8" y="73.5" transform="matrix(0.9838 -0.1791 0.1791 0.9838 -9.4446 74.0392)" class="st32" width="0.9" height="31.6"/>
					</g>
				</g>
				<g>
					<g>
						<path class="st32" d="M404.2,73.8c0,1-0.9,1.8-1.9,1.8c-1,0-1.8-0.9-1.8-1.9c0-1,0.9-1.8,1.9-1.8
							C403.5,72,404.3,72.8,404.2,73.8z"/>
					</g>
				</g>
				<g>
					<g>
						<g>
							<polygon class="st31" points="413.3,102.9 401.7,102.6 401.6,108.7 404,113.1 413,113.3 							"/>
						</g>
					</g>
					<g>
						<g>
							<g>
								<path class="st32" d="M413.3,104l-11.9-0.3c-0.5,0-1,0.4-1,1c0,0.6,0.4,1,0.9,1l11.9,0.3L413.3,104z"/>
							</g>
						</g>
						<g>
							<g>
								<path class="st32" d="M413.2,108l-11.9-0.3c-0.5,0-1,0.4-1,1c0,0.6,0.4,1,0.9,1l11.9,0.3L413.2,108z"/>
							</g>
						</g>
						<g>
							<g>
								<path class="st32" d="M413.1,112.5l-9.7-0.2c-0.4,0-0.8,0.4-0.8,0.8c0,0.5,0.3,0.8,0.8,0.8l9.7,0.2L413.1,112.5z"/>
							</g>
						</g>
					</g>
				</g>
			</g>
		</g>
	</g>
	<g>
		
			<rect x="411.9" y="37.7" transform="matrix(2.484034e-02 -0.9997 0.9997 2.484034e-02 365.3766 452.9536)" class="st8" width="6" height="3"/>
	</g>
	<g>
		<rect x="419.9" y="38.9" transform="matrix(0.2824 -0.9593 0.9593 0.2824 264.6772 434.7361)" class="st8" width="6" height="3"/>
	</g>
	<g>
		<rect x="427.4" y="42.2" transform="matrix(0.522 -0.8529 0.8529 0.522 168.3888 388.0033)" class="st8" width="6" height="3"/>
	</g>
	<g>
		<rect x="433.7" y="47.4" transform="matrix(0.7245 -0.6893 0.6893 0.7245 86.6371 314.5116)" class="st8" width="6" height="3"/>
	</g>
	<g>
		<rect x="438.5" y="54" transform="matrix(0.8782 -0.4783 0.4783 0.8782 27.2466 217.9451)" class="st8" width="6" height="3"/>
	</g>
	<g>
		<rect x="441.5" y="61.6" transform="matrix(0.9721 -0.2348 0.2348 0.9721 -2.3885 106.1148)" class="st8" width="6" height="3"/>
	</g>
	<g>
		
			<rect x="443.8" y="68.2" transform="matrix(2.519093e-02 -0.9997 0.9997 2.519093e-02 362.9441 514.6094)" class="st8" width="3" height="6"/>
	</g>
	<g>
		<rect x="442.6" y="76.3" transform="matrix(0.2816 -0.9595 0.9595 0.2816 242.993 483.0621)" class="st8" width="3" height="6"/>
	</g>
	<g>
		<rect x="439.3" y="83.7" transform="matrix(0.5222 -0.8528 0.8528 0.5222 136.6498 417.3445)" class="st8" width="3" height="6"/>
	</g>
	<g>
		<rect x="434.1" y="90.1" transform="matrix(0.7254 -0.6883 0.6883 0.7254 55.565 325.4276)" class="st8" width="3" height="6"/>
	</g>
	<g>
		<rect x="405.2" y="37.1" transform="matrix(0.972 -0.2351 0.2351 0.972 1.9815 96.7411)" class="st8" width="3" height="6"/>
	</g>
	<g>
		<rect x="397.6" y="40" transform="matrix(0.8779 -0.4789 0.4789 0.8779 28.1603 196.4075)" class="st8" width="3" height="6"/>
	</g>
	<g>
		<rect x="391" y="44.8" transform="matrix(0.7242 -0.6895 0.6895 0.7242 75.2845 283.8585)" class="st8" width="3" height="6"/>
	</g>
	<g>
		<rect x="385.9" y="51.2" transform="matrix(0.5211 -0.8535 0.8535 0.5211 139.3318 356.6061)" class="st8" width="3" height="6"/>
	</g>
	<g>
		<rect x="382.6" y="58.6" transform="matrix(0.2812 -0.9596 0.9596 0.2812 216.9579 412.8924)" class="st8" width="3" height="6"/>
	</g>
	<g>
		
			<rect x="381.3" y="66.7" transform="matrix(2.322265e-02 -0.9997 0.9997 2.322265e-02 304.3071 450.8008)" class="st8" width="3" height="6"/>
	</g>
	<g>
		<rect x="380.7" y="76.3" transform="matrix(0.9717 -0.2361 0.2361 0.9717 -7.5161 92.8083)" class="st8" width="6" height="3"/>
	</g>
	<g>
		<rect x="383.7" y="83.9" transform="matrix(0.8777 -0.4791 0.4791 0.8777 6.3558 195.7018)" class="st8" width="6" height="3"/>
	</g>
	<g>
		<rect x="388.5" y="90.5" transform="matrix(0.7232 -0.6907 0.6907 0.7232 44.8354 295.8389)" class="st8" width="6" height="3"/>
	</g>
</g>
<g>
	<g class="st33">
		<path class="st34" d="M109.6,257.2c0-8.3-6.7-15-15-15c-1.9,0-3.7,0.4-5.4,1c-3.3-5.7-9.5-9.5-16.6-9.5c-9.1,0-16.8,6.4-18.7,14.9
			c-0.4,0-0.8-0.1-1.2-0.1c-6.5,0-11.8,5.3-11.8,11.8c0,6.5,5.2,11.8,11.7,11.8v0h0.1c0,0,0,0,0,0c0,0,0,0,0,0h41.8c0,0,0,0,0,0
			s0,0,0,0h0.9v0C103.3,271.6,109.6,265.1,109.6,257.2z"/>
	</g>
	<g>
		<path class="st35" d="M107.5,255.3c0-8.3-6.7-15-15-15c-1.9,0-3.7,0.4-5.4,1c-3.3-5.7-9.5-9.5-16.6-9.5c-9.1,0-16.8,6.4-18.7,14.9
			c-0.4,0-0.8-0.1-1.2-0.1c-6.5,0-11.8,5.3-11.8,11.8c0,6.5,5.2,11.8,11.7,11.8v0h0.1c0,0,0,0,0,0c0,0,0,0,0,0h41.8c0,0,0,0,0,0
			c0,0,0,0,0,0h0.9v0C101.2,269.7,107.5,263.2,107.5,255.3z"/>
	</g>
</g>
<g>
	<g class="st33">
		<path class="st34" d="M268.4,105.9c0-9.3-7.5-16.8-16.8-16.8c-2.1,0-4.1,0.4-6,1.1c-3.7-6.3-10.6-10.6-18.5-10.6
			c-10.2,0-18.7,7.1-20.9,16.6c-0.4,0-0.9-0.1-1.4-0.1c-7.3,0-13.2,5.9-13.2,13.2c0,7.3,5.9,13.1,13.1,13.2v0h0.1c0,0,0,0,0,0
			c0,0,0,0,0,0h46.7c0,0,0,0,0,0c0,0,0,0,0,0h1v-0.1C261.5,122.1,268.4,114.8,268.4,105.9z"/>
	</g>
	<g>
		<path class="st35" d="M266.1,103.8c0-9.3-7.5-16.8-16.7-16.8c-2.1,0-4.1,0.4-6,1.1c-3.7-6.3-10.6-10.6-18.5-10.6
			c-10.2,0-18.7,7.1-20.9,16.6c-0.4,0-0.9-0.1-1.4-0.1c-7.3,0-13.2,5.9-13.2,13.2c0,7.3,5.9,13.1,13.1,13.2v0h0.1c0,0,0,0,0,0
			s0,0,0,0h46.7c0,0,0,0,0,0c0,0,0,0,0,0h1v-0.1C259.1,119.9,266.1,112.7,266.1,103.8z"/>
	</g>
</g>
<g>
	<g class="st33">
		<path class="st34" d="M110.5,184.6c0-6.2-5-11.2-11.2-11.2c-1.4,0-2.8,0.3-4,0.7c-2.5-4.2-7.1-7.1-12.4-7.1
			c-6.8,0-12.5,4.7-14,11.1c-0.3,0-0.6,0-0.9,0c-4.9,0-8.8,3.9-8.8,8.8c0,4.8,3.9,8.8,8.8,8.8v0h0c0,0,0,0,0,0c0,0,0,0,0,0h31.2
			c0,0,0,0,0,0c0,0,0,0,0,0h0.7v0C105.9,195.4,110.5,190.5,110.5,184.6z"/>
	</g>
	<g>
		<path class="st35" d="M108.9,183.2c0-6.2-5-11.2-11.2-11.2c-1.4,0-2.8,0.3-4,0.7c-2.5-4.2-7.1-7.1-12.4-7.1
			c-6.8,0-12.5,4.7-14,11.1c-0.3,0-0.6,0-0.9,0c-4.9,0-8.8,3.9-8.8,8.8c0,4.8,3.9,8.8,8.8,8.8v0h0c0,0,0,0,0,0c0,0,0,0,0,0h31.2
			c0,0,0,0,0,0c0,0,0,0,0,0h0.7v0C104.3,194,108.9,189.1,108.9,183.2z"/>
	</g>
</g>
<g>
	<g class="st33">
		<path class="st34" d="M380.5,459.2c0-6.2-5-11.2-11.2-11.2c-1.4,0-2.8,0.3-4,0.7c-2.5-4.2-7.1-7.1-12.4-7.1
			c-6.8,0-12.5,4.7-14,11.1c-0.3,0-0.6,0-0.9,0c-4.9,0-8.8,3.9-8.8,8.8c0,4.8,3.9,8.8,8.8,8.8v0h0c0,0,0,0,0,0c0,0,0,0,0,0h31.2
			c0,0,0,0,0,0c0,0,0,0,0,0h0.7v0C375.9,470,380.5,465.2,380.5,459.2z"/>
	</g>
	<g>
		<path class="st35" d="M187.9,435.8c0-6.2-5-11.2-11.2-11.2c-1.4,0-2.8,0.3-4,0.7c-2.5-4.2-7.1-7.1-12.4-7.1
			c-6.8,0-12.5,4.7-14,11.1c-0.3,0-0.6,0-0.9,0c-4.9,0-8.8,3.9-8.8,8.8c0,4.8,3.9,8.8,8.8,8.8v0h0c0,0,0,0,0,0c0,0,0,0,0,0h31.2
			c0,0,0,0,0,0c0,0,0,0,0,0h0.7v0C183.3,446.6,187.9,441.8,187.9,435.8z"/>
	</g>
</g>
<g>
	<path class="st36" d="M331.7,153l-7.8,175.6H353L347.2,153c0,0,0.9-14.3-8.3-14.3S331.7,153,331.7,153z"/>
</g>
<g>
	<g>
		<g>
			<path class="st37" d="M349.5,111.1h-10.9h-10.9c0,0-8.8,6.7-4.5,22.5c0,0,2.5-6.8,6.3-5.2c0,0-0.4,21,9.1,29.6
				c9.6-8.5,9.1-29.6,9.1-29.6c3.7-1.6,6.3,5.2,6.3,5.2C358.4,117.8,349.5,111.1,349.5,111.1z"/>
		</g>
		<g>
			<path class="st38" d="M347.2,111.1h-8.6H330c0,0-9,5.2-5.6,17.7c0,0,4.1-5.3,7-4.1c0,0-0.4,16.6,7.2,23.3
				c7.5-6.7,7.2-23.3,7.2-23.3c2.9-1.3,7.2,4.1,7.2,4.1C356.4,116.3,347.2,111.1,347.2,111.1z"/>
		</g>
		<g>
			<path class="st8" d="M344.1,111.1h-5.5h-5.5c0,0-5.7,3.3-3.6,11.3c0,0,2.6-3.4,4.5-2.6c0,0-0.2,10.5,4.6,14.8
				c4.8-4.3,4.6-14.8,4.6-14.8c1.9-0.8,4.6,2.6,4.6,2.6C349.9,114.4,344.1,111.1,344.1,111.1z"/>
		</g>
	</g>
	<g>
		<g id="XMLID_4_">
			<g id="XMLID_184_">
				<path class="st39" d="M348.1,76.2c23.3,4.7,37.7,16.1,26.6,48.9c-4.1-17.4-8.8-26.7-20.1-27.5L348.1,76.2z"/>
			</g>
			<g id="XMLID_183_">
				<path class="st40" d="M374.7,125.1c-4.1-17.4-8.8-26.7-20.1-27.5l-2.7-9C372.5,90.4,375.1,112.5,374.7,125.1z"/>
			</g>
			<g id="XMLID_182_">
				<path class="st39" d="M329.3,76.2c-23.3,4.7-37.7,16.1-26.6,48.9c4.1-17.4,8.8-26.7,20.1-27.5L329.3,76.2z"/>
			</g>
			<g id="XMLID_181_">
				<path class="st40" d="M302.8,125.1c4.1-17.4,8.8-26.7,20.1-27.5l2.7-9C304.9,90.4,302.3,112.5,302.8,125.1z"/>
			</g>
			<g id="XMLID_180_">
				<polygon class="st41" points="348.8,102 351.9,111.1 338.7,111.1 325.5,111.1 328.7,102 				"/>
			</g>
			<g id="XMLID_179_">
				<polygon class="st42" points="350.6,107.3 351.2,109.1 326.2,109.1 326.8,107.3 				"/>
			</g>
			<g id="XMLID_178_">
				<path class="st43" d="M338.7,7.3c-27.1,18.3-33.2,76.4-13.1,98.4h13.1h13.1C371.9,83.7,365.9,25.6,338.7,7.3z"/>
			</g>
			<g>
				<path class="st44" d="M338.7,7.3v98.4h13.1C371.9,83.7,365.9,25.6,338.7,7.3z"/>
			</g>
			<g id="XMLID_177_">
				<path class="st39" d="M338.7,7.3c-7,4.7-12.5,12-16.6,20.7h33.3C351.3,19.3,345.7,12,338.7,7.3z"/>
			</g>
			<g id="XMLID_147_">
				<path class="st44" d="M324.7,24.3c-0.1,0-0.2-0.1-0.2-0.2c0-0.1,0.1-0.2,0.2-0.2h0.4c0.1,0,0.2,0.1,0.2,0.2
					c0,0.1-0.1,0.2-0.2,0.2H324.7L324.7,24.3z M326.2,24.3c-0.1,0-0.2-0.1-0.2-0.2c0-0.1,0.1-0.2,0.2-0.2h0.4c0.1,0,0.2,0.1,0.2,0.2
					c0,0.1-0.1,0.2-0.2,0.2H326.2L326.2,24.3z M327.8,24.3c-0.1,0-0.2-0.1-0.2-0.2c0-0.1,0.1-0.2,0.2-0.2h0.4c0.1,0,0.2,0.1,0.2,0.2
					c0,0.1-0.1,0.2-0.2,0.2H327.8L327.8,24.3z M329.4,24.3c-0.1,0-0.2-0.1-0.2-0.2c0-0.1,0.1-0.2,0.2-0.2h0.4c0.1,0,0.2,0.1,0.2,0.2
					c0,0.1-0.1,0.2-0.2,0.2H329.4L329.4,24.3z M330.9,24.3c-0.1,0-0.2-0.1-0.2-0.2c0-0.1,0.1-0.2,0.2-0.2h0.4c0.1,0,0.2,0.1,0.2,0.2
					c0,0.1-0.1,0.2-0.2,0.2H330.9L330.9,24.3z M332.5,24.3c-0.1,0-0.2-0.1-0.2-0.2c0-0.1,0.1-0.2,0.2-0.2h0.4c0.1,0,0.2,0.1,0.2,0.2
					c0,0.1-0.1,0.2-0.2,0.2H332.5L332.5,24.3z M334,24.3c-0.1,0-0.2-0.1-0.2-0.2c0-0.1,0.1-0.2,0.2-0.2h0.4c0.1,0,0.2,0.1,0.2,0.2
					c0,0.1-0.1,0.2-0.2,0.2H334L334,24.3z M335.6,24.3c-0.1,0-0.2-0.1-0.2-0.2c0-0.1,0.1-0.2,0.2-0.2h0.4c0.1,0,0.2,0.1,0.2,0.2
					c0,0.1-0.1,0.2-0.2,0.2H335.6L335.6,24.3z M337.1,24.3c-0.1,0-0.2-0.1-0.2-0.2c0-0.1,0.1-0.2,0.2-0.2h0.4c0.1,0,0.2,0.1,0.2,0.2
					c0,0.1-0.1,0.2-0.2,0.2H337.1L337.1,24.3z M338.7,24.3c-0.1,0-0.2-0.1-0.2-0.2c0-0.1,0.1-0.2,0.2-0.2h0.4c0.1,0,0.2,0.1,0.2,0.2
					c0,0.1-0.1,0.2-0.2,0.2H338.7L338.7,24.3z M340.2,24.3c-0.1,0-0.2-0.1-0.2-0.2c0-0.1,0.1-0.2,0.2-0.2h0.4c0.1,0,0.2,0.1,0.2,0.2
					c0,0.1-0.1,0.2-0.2,0.2H340.2L340.2,24.3z M341.8,24.3c-0.1,0-0.2-0.1-0.2-0.2c0-0.1,0.1-0.2,0.2-0.2h0.4c0.1,0,0.2,0.1,0.2,0.2
					c0,0.1-0.1,0.2-0.2,0.2H341.8L341.8,24.3z M343.4,24.3c-0.1,0-0.2-0.1-0.2-0.2c0-0.1,0.1-0.2,0.2-0.2h0.4c0.1,0,0.2,0.1,0.2,0.2
					c0,0.1-0.1,0.2-0.2,0.2H343.4L343.4,24.3z M344.9,24.3c-0.1,0-0.2-0.1-0.2-0.2c0-0.1,0.1-0.2,0.2-0.2h0.4c0.1,0,0.2,0.1,0.2,0.2
					c0,0.1-0.1,0.2-0.2,0.2H344.9L344.9,24.3z M346.5,24.3c-0.1,0-0.2-0.1-0.2-0.2c0-0.1,0.1-0.2,0.2-0.2h0.4c0.1,0,0.2,0.1,0.2,0.2
					c0,0.1-0.1,0.2-0.2,0.2H346.5L346.5,24.3z M348,24.3c-0.1,0-0.2-0.1-0.2-0.2c0-0.1,0.1-0.2,0.2-0.2h0.4c0.1,0,0.2,0.1,0.2,0.2
					c0,0.1-0.1,0.2-0.2,0.2H348L348,24.3z M349.6,24.3c-0.1,0-0.2-0.1-0.2-0.2c0-0.1,0.1-0.2,0.2-0.2h0.4c0.1,0,0.2,0.1,0.2,0.2
					c0,0.1-0.1,0.2-0.2,0.2H349.6L349.6,24.3z M351.1,24.3c-0.1,0-0.2-0.1-0.2-0.2c0-0.1,0.1-0.2,0.2-0.2h0.4c0.1,0,0.2,0.1,0.2,0.2
					c0,0.1-0.1,0.2-0.2,0.2H351.1L351.1,24.3z M352.7,24.3c-0.1,0-0.2-0.1-0.2-0.2c0-0.1,0.1-0.2,0.2-0.2h0.4c0.1,0,0.2,0.1,0.2,0.2
					c0,0.1-0.1,0.2-0.2,0.2H352.7L352.7,24.3z M345.9,13.8c0.1,0,0.2,0.1,0.2,0.2c0,0.1-0.1,0.2-0.2,0.2h-0.4
					c-0.1,0-0.2-0.1-0.2-0.2c0-0.1,0.1-0.2,0.2-0.2H345.9L345.9,13.8z M344.3,13.8c0.1,0,0.2,0.1,0.2,0.2c0,0.1-0.1,0.2-0.2,0.2
					h-0.4c-0.1,0-0.2-0.1-0.2-0.2c0-0.1,0.1-0.2,0.2-0.2H344.3L344.3,13.8z M342.8,13.8c0.1,0,0.2,0.1,0.2,0.2
					c0,0.1-0.1,0.2-0.2,0.2h-0.4c-0.1,0-0.2-0.1-0.2-0.2c0-0.1,0.1-0.2,0.2-0.2H342.8L342.8,13.8z M341.2,13.8
					c0.1,0,0.2,0.1,0.2,0.2c0,0.1-0.1,0.2-0.2,0.2h-0.4c-0.1,0-0.2-0.1-0.2-0.2c0-0.1,0.1-0.2,0.2-0.2H341.2L341.2,13.8z
					 M339.7,13.8c0.1,0,0.2,0.1,0.2,0.2c0,0.1-0.1,0.2-0.2,0.2h-0.4c-0.1,0-0.2-0.1-0.2-0.2c0-0.1,0.1-0.2,0.2-0.2H339.7L339.7,13.8
					z M338.1,13.8c0.1,0,0.2,0.1,0.2,0.2c0,0.1-0.1,0.2-0.2,0.2h-0.4c-0.1,0-0.2-0.1-0.2-0.2c0-0.1,0.1-0.2,0.2-0.2H338.1
					L338.1,13.8z M336.5,13.8c0.1,0,0.2,0.1,0.2,0.2c0,0.1-0.1,0.2-0.2,0.2h-0.4c-0.1,0-0.2-0.1-0.2-0.2c0-0.1,0.1-0.2,0.2-0.2
					H336.5L336.5,13.8z M335,13.8c0.1,0,0.2,0.1,0.2,0.2c0,0.1-0.1,0.2-0.2,0.2h-0.4c-0.1,0-0.2-0.1-0.2-0.2c0-0.1,0.1-0.2,0.2-0.2
					H335L335,13.8z M333.4,13.8c0.1,0,0.2,0.1,0.2,0.2c0,0.1-0.1,0.2-0.2,0.2H333c-0.1,0-0.2-0.1-0.2-0.2c0-0.1,0.1-0.2,0.2-0.2
					H333.4L333.4,13.8z M331.9,13.8c0.1,0,0.2,0.1,0.2,0.2c0,0.1-0.1,0.2-0.2,0.2h-0.4c-0.1,0-0.2-0.1-0.2-0.2
					c0-0.1,0.1-0.2,0.2-0.2H331.9z"/>
			</g>
			<g id="XMLID_146_">
				<path class="st45" d="M314.7,53.3c-0.3,1.9-0.5,3.8-0.6,5.6h49.3c-0.2-1.9-0.4-3.8-0.6-5.6H314.7z"/>
			</g>
			<g id="XMLID_81_">
				<path class="st39" d="M314.2,57.7c0,0.1,0,0.3,0,0.4h0.2c0.1,0,0.2-0.1,0.2-0.2c0-0.1-0.1-0.2-0.2-0.2H314.2L314.2,57.7z
					 M362.9,54.7c0-0.1,0-0.2,0-0.4c-0.1,0-0.1,0.1-0.1,0.2C362.8,54.6,362.9,54.7,362.9,54.7L362.9,54.7z M315.5,58.1
					c-0.1,0-0.2-0.1-0.2-0.2c0-0.1,0.1-0.2,0.2-0.2h0.4c0.1,0,0.2,0.1,0.2,0.2c0,0.1-0.1,0.2-0.2,0.2H315.5L315.5,58.1z M317.1,58.1
					c-0.1,0-0.2-0.1-0.2-0.2c0-0.1,0.1-0.2,0.2-0.2h0.4c0.1,0,0.2,0.1,0.2,0.2c0,0.1-0.1,0.2-0.2,0.2H317.1L317.1,58.1z M318.6,58.1
					c-0.1,0-0.2-0.1-0.2-0.2c0-0.1,0.1-0.2,0.2-0.2h0.4c0.1,0,0.2,0.1,0.2,0.2c0,0.1-0.1,0.2-0.2,0.2H318.6L318.6,58.1z M320.2,58.1
					c-0.1,0-0.2-0.1-0.2-0.2c0-0.1,0.1-0.2,0.2-0.2h0.4c0.1,0,0.2,0.1,0.2,0.2c0,0.1-0.1,0.2-0.2,0.2H320.2L320.2,58.1z M321.8,58.1
					c-0.1,0-0.2-0.1-0.2-0.2c0-0.1,0.1-0.2,0.2-0.2h0.4c0.1,0,0.2,0.1,0.2,0.2c0,0.1-0.1,0.2-0.2,0.2H321.8L321.8,58.1z M323.3,58.1
					c-0.1,0-0.2-0.1-0.2-0.2c0-0.1,0.1-0.2,0.2-0.2h0.4c0.1,0,0.2,0.1,0.2,0.2c0,0.1-0.1,0.2-0.2,0.2H323.3L323.3,58.1z M324.9,58.1
					c-0.1,0-0.2-0.1-0.2-0.2c0-0.1,0.1-0.2,0.2-0.2h0.4c0.1,0,0.2,0.1,0.2,0.2c0,0.1-0.1,0.2-0.2,0.2H324.9L324.9,58.1z M326.4,58.1
					c-0.1,0-0.2-0.1-0.2-0.2c0-0.1,0.1-0.2,0.2-0.2h0.4c0.1,0,0.2,0.1,0.2,0.2c0,0.1-0.1,0.2-0.2,0.2H326.4L326.4,58.1z M328,58.1
					c-0.1,0-0.2-0.1-0.2-0.2c0-0.1,0.1-0.2,0.2-0.2h0.4c0.1,0,0.2,0.1,0.2,0.2c0,0.1-0.1,0.2-0.2,0.2H328L328,58.1z M329.5,58.1
					c-0.1,0-0.2-0.1-0.2-0.2c0-0.1,0.1-0.2,0.2-0.2h0.4c0.1,0,0.2,0.1,0.2,0.2c0,0.1-0.1,0.2-0.2,0.2H329.5L329.5,58.1z M331.1,58.1
					c-0.1,0-0.2-0.1-0.2-0.2c0-0.1,0.1-0.2,0.2-0.2h0.4c0.1,0,0.2,0.1,0.2,0.2c0,0.1-0.1,0.2-0.2,0.2H331.1L331.1,58.1z M332.6,58.1
					c-0.1,0-0.2-0.1-0.2-0.2c0-0.1,0.1-0.2,0.2-0.2h0.4c0.1,0,0.2,0.1,0.2,0.2c0,0.1-0.1,0.2-0.2,0.2H332.6L332.6,58.1z M334.2,58.1
					c-0.1,0-0.2-0.1-0.2-0.2c0-0.1,0.1-0.2,0.2-0.2h0.4c0.1,0,0.2,0.1,0.2,0.2c0,0.1-0.1,0.2-0.2,0.2H334.2L334.2,58.1z M335.8,58.1
					c-0.1,0-0.2-0.1-0.2-0.2c0-0.1,0.1-0.2,0.2-0.2h0.4c0.1,0,0.2,0.1,0.2,0.2c0,0.1-0.1,0.2-0.2,0.2H335.8L335.8,58.1z M337.3,58.1
					c-0.1,0-0.2-0.1-0.2-0.2c0-0.1,0.1-0.2,0.2-0.2h0.4c0.1,0,0.2,0.1,0.2,0.2c0,0.1-0.1,0.2-0.2,0.2H337.3L337.3,58.1z M338.9,58.1
					c-0.1,0-0.2-0.1-0.2-0.2c0-0.1,0.1-0.2,0.2-0.2h0.4c0.1,0,0.2,0.1,0.2,0.2c0,0.1-0.1,0.2-0.2,0.2H338.9L338.9,58.1z M340.4,58.1
					c-0.1,0-0.2-0.1-0.2-0.2c0-0.1,0.1-0.2,0.2-0.2h0.4c0.1,0,0.2,0.1,0.2,0.2c0,0.1-0.1,0.2-0.2,0.2H340.4L340.4,58.1z M342,58.1
					c-0.1,0-0.2-0.1-0.2-0.2c0-0.1,0.1-0.2,0.2-0.2h0.4c0.1,0,0.2,0.1,0.2,0.2c0,0.1-0.1,0.2-0.2,0.2H342L342,58.1z M343.5,58.1
					c-0.1,0-0.2-0.1-0.2-0.2c0-0.1,0.1-0.2,0.2-0.2h0.4c0.1,0,0.2,0.1,0.2,0.2c0,0.1-0.1,0.2-0.2,0.2H343.5L343.5,58.1z M345.1,58.1
					c-0.1,0-0.2-0.1-0.2-0.2c0-0.1,0.1-0.2,0.2-0.2h0.4c0.1,0,0.2,0.1,0.2,0.2c0,0.1-0.1,0.2-0.2,0.2H345.1L345.1,58.1z M346.7,58.1
					c-0.1,0-0.2-0.1-0.2-0.2c0-0.1,0.1-0.2,0.2-0.2h0.4c0.1,0,0.2,0.1,0.2,0.2c0,0.1-0.1,0.2-0.2,0.2H346.7L346.7,58.1z M348.2,58.1
					c-0.1,0-0.2-0.1-0.2-0.2c0-0.1,0.1-0.2,0.2-0.2h0.4c0.1,0,0.2,0.1,0.2,0.2c0,0.1-0.1,0.2-0.2,0.2H348.2L348.2,58.1z M349.8,58.1
					c-0.1,0-0.2-0.1-0.2-0.2c0-0.1,0.1-0.2,0.2-0.2h0.4c0.1,0,0.2,0.1,0.2,0.2c0,0.1-0.1,0.2-0.2,0.2H349.8L349.8,58.1z M351.3,58.1
					c-0.1,0-0.2-0.1-0.2-0.2c0-0.1,0.1-0.2,0.2-0.2h0.4c0.1,0,0.2,0.1,0.2,0.2c0,0.1-0.1,0.2-0.2,0.2H351.3L351.3,58.1z M352.9,58.1
					c-0.1,0-0.2-0.1-0.2-0.2c0-0.1,0.1-0.2,0.2-0.2h0.4c0.1,0,0.2,0.1,0.2,0.2c0,0.1-0.1,0.2-0.2,0.2H352.9L352.9,58.1z M354.4,58.1
					c-0.1,0-0.2-0.1-0.2-0.2c0-0.1,0.1-0.2,0.2-0.2h0.4c0.1,0,0.2,0.1,0.2,0.2c0,0.1-0.1,0.2-0.2,0.2H354.4L354.4,58.1z M356,58.1
					c-0.1,0-0.2-0.1-0.2-0.2c0-0.1,0.1-0.2,0.2-0.2h0.4c0.1,0,0.2,0.1,0.2,0.2c0,0.1-0.1,0.2-0.2,0.2H356L356,58.1z M357.5,58.1
					c-0.1,0-0.2-0.1-0.2-0.2c0-0.1,0.1-0.2,0.2-0.2h0.4c0.1,0,0.2,0.1,0.2,0.2c0,0.1-0.1,0.2-0.2,0.2H357.5L357.5,58.1z M359.1,58.1
					c-0.1,0-0.2-0.1-0.2-0.2c0-0.1,0.1-0.2,0.2-0.2h0.4c0.1,0,0.2,0.1,0.2,0.2c0,0.1-0.1,0.2-0.2,0.2H359.1L359.1,58.1z M360.7,58.1
					c-0.1,0-0.2-0.1-0.2-0.2c0-0.1,0.1-0.2,0.2-0.2h0.4c0.1,0,0.2,0.1,0.2,0.2c0,0.1-0.1,0.2-0.2,0.2H360.7L360.7,58.1z M362.2,58.1
					c-0.1,0-0.2-0.1-0.2-0.2c0-0.1,0.1-0.2,0.2-0.2h0.4c0.1,0,0.2,0.1,0.2,0.2c0,0.1-0.1,0.2-0.2,0.2H362.2L362.2,58.1z M361.8,54.4
					c0.1,0,0.2,0.1,0.2,0.2c0,0.1-0.1,0.2-0.2,0.2h-0.4c-0.1,0-0.2-0.1-0.2-0.2c0-0.1,0.1-0.2,0.2-0.2H361.8L361.8,54.4z
					 M360.3,54.4c0.1,0,0.2,0.1,0.2,0.2c0,0.1-0.1,0.2-0.2,0.2h-0.4c-0.1,0-0.2-0.1-0.2-0.2c0-0.1,0.1-0.2,0.2-0.2H360.3L360.3,54.4
					z M358.7,54.4c0.1,0,0.2,0.1,0.2,0.2c0,0.1-0.1,0.2-0.2,0.2h-0.4c-0.1,0-0.2-0.1-0.2-0.2c0-0.1,0.1-0.2,0.2-0.2H358.7
					L358.7,54.4z M357.1,54.4c0.1,0,0.2,0.1,0.2,0.2c0,0.1-0.1,0.2-0.2,0.2h-0.4c-0.1,0-0.2-0.1-0.2-0.2c0-0.1,0.1-0.2,0.2-0.2
					H357.1L357.1,54.4z M355.6,54.4c0.1,0,0.2,0.1,0.2,0.2c0,0.1-0.1,0.2-0.2,0.2h-0.4c-0.1,0-0.2-0.1-0.2-0.2
					c0-0.1,0.1-0.2,0.2-0.2H355.6L355.6,54.4z M354,54.4c0.1,0,0.2,0.1,0.2,0.2c0,0.1-0.1,0.2-0.2,0.2h-0.4c-0.1,0-0.2-0.1-0.2-0.2
					c0-0.1,0.1-0.2,0.2-0.2H354L354,54.4z M352.5,54.4c0.1,0,0.2,0.1,0.2,0.2c0,0.1-0.1,0.2-0.2,0.2h-0.4c-0.1,0-0.2-0.1-0.2-0.2
					c0-0.1,0.1-0.2,0.2-0.2H352.5L352.5,54.4z M350.9,54.4c0.1,0,0.2,0.1,0.2,0.2c0,0.1-0.1,0.2-0.2,0.2h-0.4
					c-0.1,0-0.2-0.1-0.2-0.2c0-0.1,0.1-0.2,0.2-0.2H350.9L350.9,54.4z M349.4,54.4c0.1,0,0.2,0.1,0.2,0.2c0,0.1-0.1,0.2-0.2,0.2H349
					c-0.1,0-0.2-0.1-0.2-0.2c0-0.1,0.1-0.2,0.2-0.2H349.4L349.4,54.4z M347.8,54.4c0.1,0,0.2,0.1,0.2,0.2c0,0.1-0.1,0.2-0.2,0.2
					h-0.4c-0.1,0-0.2-0.1-0.2-0.2c0-0.1,0.1-0.2,0.2-0.2H347.8L347.8,54.4z M346.3,54.4c0.1,0,0.2,0.1,0.2,0.2
					c0,0.1-0.1,0.2-0.2,0.2h-0.4c-0.1,0-0.2-0.1-0.2-0.2c0-0.1,0.1-0.2,0.2-0.2H346.3L346.3,54.4z M344.7,54.4
					c0.1,0,0.2,0.1,0.2,0.2c0,0.1-0.1,0.2-0.2,0.2h-0.4c-0.1,0-0.2-0.1-0.2-0.2c0-0.1,0.1-0.2,0.2-0.2H344.7L344.7,54.4z
					 M343.1,54.4c0.1,0,0.2,0.1,0.2,0.2c0,0.1-0.1,0.2-0.2,0.2h-0.4c-0.1,0-0.2-0.1-0.2-0.2c0-0.1,0.1-0.2,0.2-0.2H343.1L343.1,54.4
					z M341.6,54.4c0.1,0,0.2,0.1,0.2,0.2c0,0.1-0.1,0.2-0.2,0.2h-0.4c-0.1,0-0.2-0.1-0.2-0.2c0-0.1,0.1-0.2,0.2-0.2H341.6
					L341.6,54.4z M340,54.4c0.1,0,0.2,0.1,0.2,0.2c0,0.1-0.1,0.2-0.2,0.2h-0.4c-0.1,0-0.2-0.1-0.2-0.2c0-0.1,0.1-0.2,0.2-0.2H340
					L340,54.4z M338.5,54.4c0.1,0,0.2,0.1,0.2,0.2c0,0.1-0.1,0.2-0.2,0.2h-0.4c-0.1,0-0.2-0.1-0.2-0.2c0-0.1,0.1-0.2,0.2-0.2H338.5
					L338.5,54.4z M336.9,54.4c0.1,0,0.2,0.1,0.2,0.2c0,0.1-0.1,0.2-0.2,0.2h-0.4c-0.1,0-0.2-0.1-0.2-0.2c0-0.1,0.1-0.2,0.2-0.2
					H336.9L336.9,54.4z M335.4,54.4c0.1,0,0.2,0.1,0.2,0.2c0,0.1-0.1,0.2-0.2,0.2H335c-0.1,0-0.2-0.1-0.2-0.2c0-0.1,0.1-0.2,0.2-0.2
					H335.4L335.4,54.4z M333.8,54.4c0.1,0,0.2,0.1,0.2,0.2c0,0.1-0.1,0.2-0.2,0.2h-0.4c-0.1,0-0.2-0.1-0.2-0.2
					c0-0.1,0.1-0.2,0.2-0.2H333.8L333.8,54.4z M332.2,54.4c0.1,0,0.2,0.1,0.2,0.2c0,0.1-0.1,0.2-0.2,0.2h-0.4
					c-0.1,0-0.2-0.1-0.2-0.2c0-0.1,0.1-0.2,0.2-0.2H332.2L332.2,54.4z M330.7,54.4c0.1,0,0.2,0.1,0.2,0.2c0,0.1-0.1,0.2-0.2,0.2
					h-0.4c-0.1,0-0.2-0.1-0.2-0.2c0-0.1,0.1-0.2,0.2-0.2H330.7L330.7,54.4z M329.1,54.4c0.1,0,0.2,0.1,0.2,0.2
					c0,0.1-0.1,0.2-0.2,0.2h-0.4c-0.1,0-0.2-0.1-0.2-0.2c0-0.1,0.1-0.2,0.2-0.2H329.1L329.1,54.4z M327.6,54.4
					c0.1,0,0.2,0.1,0.2,0.2c0,0.1-0.1,0.2-0.2,0.2h-0.4c-0.1,0-0.2-0.1-0.2-0.2c0-0.1,0.1-0.2,0.2-0.2H327.6L327.6,54.4z M326,54.4
					c0.1,0,0.2,0.1,0.2,0.2c0,0.1-0.1,0.2-0.2,0.2h-0.4c-0.1,0-0.2-0.1-0.2-0.2c0-0.1,0.1-0.2,0.2-0.2H326L326,54.4z M324.5,54.4
					c0.1,0,0.2,0.1,0.2,0.2c0,0.1-0.1,0.2-0.2,0.2h-0.4c-0.1,0-0.2-0.1-0.2-0.2c0-0.1,0.1-0.2,0.2-0.2H324.5L324.5,54.4z
					 M322.9,54.4c0.1,0,0.2,0.1,0.2,0.2c0,0.1-0.1,0.2-0.2,0.2h-0.4c-0.1,0-0.2-0.1-0.2-0.2c0-0.1,0.1-0.2,0.2-0.2H322.9L322.9,54.4
					z M321.4,54.4c0.1,0,0.2,0.1,0.2,0.2c0,0.1-0.1,0.2-0.2,0.2H321c-0.1,0-0.2-0.1-0.2-0.2c0-0.1,0.1-0.2,0.2-0.2H321.4L321.4,54.4
					z M319.8,54.4c0.1,0,0.2,0.1,0.2,0.2c0,0.1-0.1,0.2-0.2,0.2h-0.4c-0.1,0-0.2-0.1-0.2-0.2c0-0.1,0.1-0.2,0.2-0.2H319.8
					L319.8,54.4z M318.2,54.4c0.1,0,0.2,0.1,0.2,0.2c0,0.1-0.1,0.2-0.2,0.2h-0.4c-0.1,0-0.2-0.1-0.2-0.2c0-0.1,0.1-0.2,0.2-0.2
					H318.2L318.2,54.4z M316.7,54.4c0.1,0,0.2,0.1,0.2,0.2c0,0.1-0.1,0.2-0.2,0.2h-0.4c-0.1,0-0.2-0.1-0.2-0.2
					c0-0.1,0.1-0.2,0.2-0.2H316.7L316.7,54.4z M315.1,54.4c0.1,0,0.2,0.1,0.2,0.2c0,0.1-0.1,0.2-0.2,0.2h-0.4
					c-0.1,0-0.2-0.1-0.2-0.2c0-0.1,0.1-0.2,0.2-0.2H315.1z"/>
			</g>
			<g id="XMLID_80_">
				<path class="st39" d="M313.8,62c-0.5,10,0.4,19.8,3.1,28.2h43.5c2.7-8.4,3.6-18.2,3.1-28.2H313.8z"/>
			</g>
			<g id="XMLID_17_">
				<path class="st44" d="M315.7,85.3c0,0.1,0.1,0.2,0.1,0.3c0,0,0,0,0.1,0h0.4c0.1,0,0.2-0.1,0.2-0.2s-0.1-0.2-0.2-0.2h-0.4
					C315.7,85.2,315.7,85.3,315.7,85.3L315.7,85.3z M317.3,85.6c-0.1,0-0.2-0.1-0.2-0.2s0.1-0.2,0.2-0.2h0.4c0.1,0,0.2,0.1,0.2,0.2
					s-0.1,0.2-0.2,0.2H317.3L317.3,85.6z M318.9,85.6c-0.1,0-0.2-0.1-0.2-0.2s0.1-0.2,0.2-0.2h0.4c0.1,0,0.2,0.1,0.2,0.2
					s-0.1,0.2-0.2,0.2H318.9L318.9,85.6z M320.5,85.6c-0.1,0-0.2-0.1-0.2-0.2s0.1-0.2,0.2-0.2h0.4c0.1,0,0.2,0.1,0.2,0.2
					s-0.1,0.2-0.2,0.2H320.5L320.5,85.6z M322,85.6c-0.1,0-0.2-0.1-0.2-0.2s0.1-0.2,0.2-0.2h0.4c0.1,0,0.2,0.1,0.2,0.2
					s-0.1,0.2-0.2,0.2H322L322,85.6z M323.6,85.6c-0.1,0-0.2-0.1-0.2-0.2s0.1-0.2,0.2-0.2h0.4c0.1,0,0.2,0.1,0.2,0.2
					s-0.1,0.2-0.2,0.2H323.6L323.6,85.6z M325.1,85.6c-0.1,0-0.2-0.1-0.2-0.2s0.1-0.2,0.2-0.2h0.4c0.1,0,0.2,0.1,0.2,0.2
					s-0.1,0.2-0.2,0.2H325.1L325.1,85.6z M326.7,85.6c-0.1,0-0.2-0.1-0.2-0.2s0.1-0.2,0.2-0.2h0.4c0.1,0,0.2,0.1,0.2,0.2
					s-0.1,0.2-0.2,0.2H326.7L326.7,85.6z M328.2,85.6c-0.1,0-0.2-0.1-0.2-0.2s0.1-0.2,0.2-0.2h0.4c0.1,0,0.2,0.1,0.2,0.2
					s-0.1,0.2-0.2,0.2H328.2L328.2,85.6z M329.8,85.6c-0.1,0-0.2-0.1-0.2-0.2s0.1-0.2,0.2-0.2h0.4c0.1,0,0.2,0.1,0.2,0.2
					s-0.1,0.2-0.2,0.2H329.8L329.8,85.6z M331.3,85.6c-0.1,0-0.2-0.1-0.2-0.2s0.1-0.2,0.2-0.2h0.4c0.1,0,0.2,0.1,0.2,0.2
					s-0.1,0.2-0.2,0.2H331.3L331.3,85.6z M332.9,85.6c-0.1,0-0.2-0.1-0.2-0.2s0.1-0.2,0.2-0.2h0.4c0.1,0,0.2,0.1,0.2,0.2
					s-0.1,0.2-0.2,0.2H332.9L332.9,85.6z M334.5,85.6c-0.1,0-0.2-0.1-0.2-0.2s0.1-0.2,0.2-0.2h0.4c0.1,0,0.2,0.1,0.2,0.2
					s-0.1,0.2-0.2,0.2H334.5L334.5,85.6z M336,85.6c-0.1,0-0.2-0.1-0.2-0.2s0.1-0.2,0.2-0.2h0.4c0.1,0,0.2,0.1,0.2,0.2
					s-0.1,0.2-0.2,0.2H336L336,85.6z M337.6,85.6c-0.1,0-0.2-0.1-0.2-0.2s0.1-0.2,0.2-0.2h0.4c0.1,0,0.2,0.1,0.2,0.2
					s-0.1,0.2-0.2,0.2H337.6L337.6,85.6z M339.1,85.6c-0.1,0-0.2-0.1-0.2-0.2s0.1-0.2,0.2-0.2h0.4c0.1,0,0.2,0.1,0.2,0.2
					s-0.1,0.2-0.2,0.2H339.1L339.1,85.6z M340.7,85.6c-0.1,0-0.2-0.1-0.2-0.2s0.1-0.2,0.2-0.2h0.4c0.1,0,0.2,0.1,0.2,0.2
					s-0.1,0.2-0.2,0.2H340.7L340.7,85.6z M342.2,85.6c-0.1,0-0.2-0.1-0.2-0.2s0.1-0.2,0.2-0.2h0.4c0.1,0,0.2,0.1,0.2,0.2
					s-0.1,0.2-0.2,0.2H342.2L342.2,85.6z M343.8,85.6c-0.1,0-0.2-0.1-0.2-0.2s0.1-0.2,0.2-0.2h0.4c0.1,0,0.2,0.1,0.2,0.2
					s-0.1,0.2-0.2,0.2H343.8L343.8,85.6z M345.4,85.6c-0.1,0-0.2-0.1-0.2-0.2s0.1-0.2,0.2-0.2h0.4c0.1,0,0.2,0.1,0.2,0.2
					s-0.1,0.2-0.2,0.2H345.4L345.4,85.6z M346.9,85.6c-0.1,0-0.2-0.1-0.2-0.2s0.1-0.2,0.2-0.2h0.4c0.1,0,0.2,0.1,0.2,0.2
					s-0.1,0.2-0.2,0.2H346.9L346.9,85.6z M348.5,85.6c-0.1,0-0.2-0.1-0.2-0.2s0.1-0.2,0.2-0.2h0.4c0.1,0,0.2,0.1,0.2,0.2
					s-0.1,0.2-0.2,0.2H348.5L348.5,85.6z M350,85.6c-0.1,0-0.2-0.1-0.2-0.2s0.1-0.2,0.2-0.2h0.4c0.1,0,0.2,0.1,0.2,0.2
					s-0.1,0.2-0.2,0.2H350L350,85.6z M351.6,85.6c-0.1,0-0.2-0.1-0.2-0.2s0.1-0.2,0.2-0.2h0.4c0.1,0,0.2,0.1,0.2,0.2
					s-0.1,0.2-0.2,0.2H351.6L351.6,85.6z M353.1,85.6c-0.1,0-0.2-0.1-0.2-0.2s0.1-0.2,0.2-0.2h0.4c0.1,0,0.2,0.1,0.2,0.2
					s-0.1,0.2-0.2,0.2H353.1L353.1,85.6z M354.7,85.6c-0.1,0-0.2-0.1-0.2-0.2s0.1-0.2,0.2-0.2h0.4c0.1,0,0.2,0.1,0.2,0.2
					s-0.1,0.2-0.2,0.2H354.7L354.7,85.6z M356.2,85.6c-0.1,0-0.2-0.1-0.2-0.2s0.1-0.2,0.2-0.2h0.4c0.1,0,0.2,0.1,0.2,0.2
					s-0.1,0.2-0.2,0.2H356.2L356.2,85.6z M357.8,85.6c-0.1,0-0.2-0.1-0.2-0.2s0.1-0.2,0.2-0.2h0.4c0.1,0,0.2,0.1,0.2,0.2
					s-0.1,0.2-0.2,0.2H357.8L357.8,85.6z M359.4,85.6c-0.1,0-0.2-0.1-0.2-0.2s0.1-0.2,0.2-0.2h0.4c0.1,0,0.2,0.1,0.2,0.2
					s-0.1,0.2-0.2,0.2H359.4L359.4,85.6z M360.9,85.6c-0.1,0-0.2-0.1-0.2-0.2s0.1-0.2,0.2-0.2h0.4c0.1,0,0.2,0.1,0.2,0.2
					s-0.1,0.2-0.2,0.2H360.9L360.9,85.6z M363.4,72.3c0.1,0,0.2,0.1,0.2,0.2c0,0.1-0.1,0.2-0.2,0.2H363c-0.1,0-0.2-0.1-0.2-0.2
					c0-0.1,0.1-0.2,0.2-0.2H363.4L363.4,72.3z M361.8,72.3c0.1,0,0.2,0.1,0.2,0.2c0,0.1-0.1,0.2-0.2,0.2h-0.4
					c-0.1,0-0.2-0.1-0.2-0.2c0-0.1,0.1-0.2,0.2-0.2H361.8L361.8,72.3z M360.3,72.3c0.1,0,0.2,0.1,0.2,0.2c0,0.1-0.1,0.2-0.2,0.2
					h-0.4c-0.1,0-0.2-0.1-0.2-0.2c0-0.1,0.1-0.2,0.2-0.2H360.3L360.3,72.3z M358.7,72.3c0.1,0,0.2,0.1,0.2,0.2
					c0,0.1-0.1,0.2-0.2,0.2h-0.4c-0.1,0-0.2-0.1-0.2-0.2c0-0.1,0.1-0.2,0.2-0.2H358.7L358.7,72.3z M357.1,72.3
					c0.1,0,0.2,0.1,0.2,0.2c0,0.1-0.1,0.2-0.2,0.2h-0.4c-0.1,0-0.2-0.1-0.2-0.2c0-0.1,0.1-0.2,0.2-0.2H357.1L357.1,72.3z
					 M355.6,72.3c0.1,0,0.2,0.1,0.2,0.2c0,0.1-0.1,0.2-0.2,0.2h-0.4c-0.1,0-0.2-0.1-0.2-0.2c0-0.1,0.1-0.2,0.2-0.2H355.6L355.6,72.3
					z M354,72.3c0.1,0,0.2,0.1,0.2,0.2c0,0.1-0.1,0.2-0.2,0.2h-0.4c-0.1,0-0.2-0.1-0.2-0.2c0-0.1,0.1-0.2,0.2-0.2H354L354,72.3z
					 M352.5,72.3c0.1,0,0.2,0.1,0.2,0.2c0,0.1-0.1,0.2-0.2,0.2h-0.4c-0.1,0-0.2-0.1-0.2-0.2c0-0.1,0.1-0.2,0.2-0.2H352.5L352.5,72.3
					z M350.9,72.3c0.1,0,0.2,0.1,0.2,0.2c0,0.1-0.1,0.2-0.2,0.2h-0.4c-0.1,0-0.2-0.1-0.2-0.2c0-0.1,0.1-0.2,0.2-0.2H350.9
					L350.9,72.3z M349.4,72.3c0.1,0,0.2,0.1,0.2,0.2c0,0.1-0.1,0.2-0.2,0.2H349c-0.1,0-0.2-0.1-0.2-0.2c0-0.1,0.1-0.2,0.2-0.2H349.4
					L349.4,72.3z M347.8,72.3c0.1,0,0.2,0.1,0.2,0.2c0,0.1-0.1,0.2-0.2,0.2h-0.4c-0.1,0-0.2-0.1-0.2-0.2c0-0.1,0.1-0.2,0.2-0.2
					H347.8L347.8,72.3z M346.3,72.3c0.1,0,0.2,0.1,0.2,0.2c0,0.1-0.1,0.2-0.2,0.2h-0.4c-0.1,0-0.2-0.1-0.2-0.2
					c0-0.1,0.1-0.2,0.2-0.2H346.3L346.3,72.3z M344.7,72.3c0.1,0,0.2,0.1,0.2,0.2c0,0.1-0.1,0.2-0.2,0.2h-0.4
					c-0.1,0-0.2-0.1-0.2-0.2c0-0.1,0.1-0.2,0.2-0.2H344.7L344.7,72.3z M343.1,72.3c0.1,0,0.2,0.1,0.2,0.2c0,0.1-0.1,0.2-0.2,0.2
					h-0.4c-0.1,0-0.2-0.1-0.2-0.2c0-0.1,0.1-0.2,0.2-0.2H343.1L343.1,72.3z M341.6,72.3c0.1,0,0.2,0.1,0.2,0.2
					c0,0.1-0.1,0.2-0.2,0.2h-0.4c-0.1,0-0.2-0.1-0.2-0.2c0-0.1,0.1-0.2,0.2-0.2H341.6L341.6,72.3z M340,72.3c0.1,0,0.2,0.1,0.2,0.2
					c0,0.1-0.1,0.2-0.2,0.2h-0.4c-0.1,0-0.2-0.1-0.2-0.2c0-0.1,0.1-0.2,0.2-0.2H340L340,72.3z M338.5,72.3c0.1,0,0.2,0.1,0.2,0.2
					c0,0.1-0.1,0.2-0.2,0.2h-0.4c-0.1,0-0.2-0.1-0.2-0.2c0-0.1,0.1-0.2,0.2-0.2H338.5L338.5,72.3z M336.9,72.3
					c0.1,0,0.2,0.1,0.2,0.2c0,0.1-0.1,0.2-0.2,0.2h-0.4c-0.1,0-0.2-0.1-0.2-0.2c0-0.1,0.1-0.2,0.2-0.2H336.9L336.9,72.3z
					 M335.4,72.3c0.1,0,0.2,0.1,0.2,0.2c0,0.1-0.1,0.2-0.2,0.2H335c-0.1,0-0.2-0.1-0.2-0.2c0-0.1,0.1-0.2,0.2-0.2H335.4L335.4,72.3z
					 M333.8,72.3c0.1,0,0.2,0.1,0.2,0.2c0,0.1-0.1,0.2-0.2,0.2h-0.4c-0.1,0-0.2-0.1-0.2-0.2c0-0.1,0.1-0.2,0.2-0.2H333.8L333.8,72.3
					z M332.2,72.3c0.1,0,0.2,0.1,0.2,0.2c0,0.1-0.1,0.2-0.2,0.2h-0.4c-0.1,0-0.2-0.1-0.2-0.2c0-0.1,0.1-0.2,0.2-0.2H332.2
					L332.2,72.3z M330.7,72.3c0.1,0,0.2,0.1,0.2,0.2c0,0.1-0.1,0.2-0.2,0.2h-0.4c-0.1,0-0.2-0.1-0.2-0.2c0-0.1,0.1-0.2,0.2-0.2
					H330.7L330.7,72.3z M329.1,72.3c0.1,0,0.2,0.1,0.2,0.2c0,0.1-0.1,0.2-0.2,0.2h-0.4c-0.1,0-0.2-0.1-0.2-0.2
					c0-0.1,0.1-0.2,0.2-0.2H329.1L329.1,72.3z M327.6,72.3c0.1,0,0.2,0.1,0.2,0.2c0,0.1-0.1,0.2-0.2,0.2h-0.4
					c-0.1,0-0.2-0.1-0.2-0.2c0-0.1,0.1-0.2,0.2-0.2H327.6L327.6,72.3z M326,72.3c0.1,0,0.2,0.1,0.2,0.2c0,0.1-0.1,0.2-0.2,0.2h-0.4
					c-0.1,0-0.2-0.1-0.2-0.2c0-0.1,0.1-0.2,0.2-0.2H326L326,72.3z M324.5,72.3c0.1,0,0.2,0.1,0.2,0.2c0,0.1-0.1,0.2-0.2,0.2h-0.4
					c-0.1,0-0.2-0.1-0.2-0.2c0-0.1,0.1-0.2,0.2-0.2H324.5L324.5,72.3z M322.9,72.3c0.1,0,0.2,0.1,0.2,0.2c0,0.1-0.1,0.2-0.2,0.2
					h-0.4c-0.1,0-0.2-0.1-0.2-0.2c0-0.1,0.1-0.2,0.2-0.2H322.9L322.9,72.3z M321.4,72.3c0.1,0,0.2,0.1,0.2,0.2
					c0,0.1-0.1,0.2-0.2,0.2H321c-0.1,0-0.2-0.1-0.2-0.2c0-0.1,0.1-0.2,0.2-0.2H321.4L321.4,72.3z M319.8,72.3c0.1,0,0.2,0.1,0.2,0.2
					c0,0.1-0.1,0.2-0.2,0.2h-0.4c-0.1,0-0.2-0.1-0.2-0.2c0-0.1,0.1-0.2,0.2-0.2H319.8L319.8,72.3z M318.2,72.3
					c0.1,0,0.2,0.1,0.2,0.2c0,0.1-0.1,0.2-0.2,0.2h-0.4c-0.1,0-0.2-0.1-0.2-0.2c0-0.1,0.1-0.2,0.2-0.2H318.2L318.2,72.3z
					 M316.7,72.3c0.1,0,0.2,0.1,0.2,0.2c0,0.1-0.1,0.2-0.2,0.2h-0.4c-0.1,0-0.2-0.1-0.2-0.2c0-0.1,0.1-0.2,0.2-0.2H316.7L316.7,72.3
					z M315.1,72.3c0.1,0,0.2,0.1,0.2,0.2c0,0.1-0.1,0.2-0.2,0.2h-0.4c-0.1,0-0.2-0.1-0.2-0.2c0-0.1,0.1-0.2,0.2-0.2H315.1z"/>
			</g>
			<g id="XMLID_16_">
				<path class="st46" d="M324.1,52.9c0-3.9,1-7.9,3.1-11.3c1.9-3,4.7-5.5,8.2-6.5c1-0.3,2-0.4,3-0.4c1,0,2,0.1,3,0.4
					c3.5,0.9,6.3,3.4,8.2,6.5c2.1,3.3,3.1,7.3,3.1,11.3c0,3.9-1,7.9-3.1,11.3c-1.9,3-4.7,5.5-8.2,6.5c-1,0.3-2,0.4-3,0.4
					c-1,0-2-0.1-3-0.4c-3.5-0.9-6.3-3.4-8.2-6.5C325.1,60.8,324.1,56.8,324.1,52.9z"/>
			</g>
			<g id="XMLID_15_">
				<path class="st47" d="M338.4,68.7c6.6,0,11.9-7.1,11.9-15.8c0-8.7-5.4-15.8-11.9-15.8c-6.6,0-11.9,7.1-11.9,15.8
					C326.5,61.6,331.9,68.7,338.4,68.7z"/>
			</g>
			<g id="XMLID_14_">
				<path class="st48" d="M345.7,40.4c-2-2-4.5-3.3-7.3-3.3c-6.6,0-11.9,7.1-11.9,15.8c0,3.1,0.7,6,1.9,8.4c2,2,4.5,3.3,7.3,3.3
					c6.6,0,11.9-7.1,11.9-15.8C347.5,45.8,346.9,42.9,345.7,40.4z"/>
			</g>
			<g id="XMLID_13_">
				<path class="st45" d="M338.7,77.5c-4.2,18-1.5,28.7,0,47.6C340.2,106.2,342.9,95.5,338.7,77.5z"/>
			</g>
			<g id="XMLID_12_">
				<path class="st40" d="M338.7,125.1c1.5-18.9,4.2-29.6,0-47.6V125.1z"/>
			</g>
			<g id="XMLID_11_">
				<path class="st49" d="M332.1,52.5c2.2,0.7,4.8-1.2,5.7-4.1c0.9-3-0.2-5.9-2.4-6.6c-2.2-0.7-4.8,1.2-5.7,4.1
					C328.7,48.8,329.8,51.8,332.1,52.5z"/>
			</g>
			<g id="XMLID_10_">
				<circle class="st50" cx="338.2" cy="36.1" r="0.8"/>
			</g>
			<g id="XMLID_9_">
				<circle class="st50" cx="326.8" cy="44.9" r="0.8"/>
			</g>
			<g id="XMLID_8_">
				<circle class="st50" cx="350.1" cy="44.9" r="0.8"/>
			</g>
			<g id="XMLID_7_">
				<circle class="st50" cx="338.4" cy="70" r="0.8"/>
			</g>
			<g id="XMLID_6_">
				<circle class="st50" cx="327" cy="61.2" r="0.8"/>
			</g>
			<g id="XMLID_5_">
				<circle class="st50" cx="349.9" cy="61.2" r="0.8"/>
			</g>
		</g>
	</g>
</g>
<g>
	<g class="st33">
		<path class="st34" d="M410.5,328.8c0-11.9-9.7-21.6-21.6-21.6c-2.7,0-5.3,0.5-7.7,1.4c-4.8-8.2-13.7-13.6-23.9-13.6
			c-13.1,0-24.1,9.2-27,21.4c-0.6-0.1-1.2-0.1-1.7-0.1c-9.4,0-17,7.6-17,17c0,9.4,7.6,16.9,16.9,17v0h0.1c0,0,0,0,0.1,0
			c0,0,0,0,0.1,0h60.2c0,0,0,0,0.1,0c0,0,0,0,0.1,0h1.3v-0.1C401.6,349.6,410.5,340.2,410.5,328.8z"/>
	</g>
	<g>
		<path class="st35" d="M406.3,325.6c0-11.9-9.7-21.6-21.6-21.6c-2.7,0-5.3,0.5-7.7,1.4c-4.8-8.2-13.7-13.6-23.9-13.6
			c-13.1,0-24.1,9.2-27,21.4c-0.6-0.1-1.2-0.1-1.7-0.1c-9.4,0-17,7.6-17,17c0,9.4,7.6,16.9,16.9,17v0h0.1c0,0,0,0,0.1,0s0,0,0.1,0
			h60.2c0,0,0,0,0.1,0c0,0,0,0,0.1,0h1.3v-0.1C397.3,346.4,406.3,337.1,406.3,325.6z"/>
	</g>
</g>
<g>
	<g>
		<circle class="st3" cx="287" cy="352.2" r="35.9"/>
	</g>
	<g>
		<circle class="st51" cx="287" cy="352.2" r="30.5"/>
	</g>
	<g>
		<g>
			<path class="st52" d="M287,328.6L287,328.6c0.4,0,0.8-0.4,0.8-0.8v-3.3c0-0.4-0.4-0.8-0.8-0.8l0,0c-0.4,0-0.8,0.4-0.8,0.8v3.3
				C286.2,328.2,286.6,328.6,287,328.6z"/>
		</g>
		<g>
			<path class="st52" d="M295.1,330L295.1,330c0.4,0.2,0.9-0.1,1-0.5l1.1-3.1c0.2-0.4-0.1-0.9-0.5-1l0,0c-0.4-0.2-0.9,0.1-1,0.5
				l-1.1,3.1C294.5,329.4,294.7,329.9,295.1,330z"/>
		</g>
		<g>
			<path class="st52" d="M302.2,334.1L302.2,334.1c0.3,0.3,0.9,0.2,1.1-0.1l2.2-2.6c0.3-0.3,0.2-0.9-0.1-1.1l0,0
				c-0.3-0.3-0.9-0.2-1.1,0.1l-2.2,2.6C301.8,333.3,301.9,333.8,302.2,334.1z"/>
		</g>
		<g>
			<path class="st52" d="M307.5,340.4L307.5,340.4c0.2,0.4,0.7,0.5,1.1,0.3l2.9-1.7c0.4-0.2,0.5-0.7,0.3-1.1l0,0
				c-0.2-0.4-0.7-0.5-1.1-0.3l-2.9,1.7C307.4,339.5,307.2,340,307.5,340.4z"/>
		</g>
		<g>
			<path class="st52" d="M310.3,348.1L310.3,348.1c0.1,0.4,0.5,0.7,0.9,0.7l3.3-0.6c0.4-0.1,0.7-0.5,0.7-0.9l0,0
				c-0.1-0.4-0.5-0.7-0.9-0.7l-3.3,0.6C310.5,347.2,310.2,347.7,310.3,348.1z"/>
		</g>
		<g>
			<path class="st52" d="M310.3,356.3L310.3,356.3c-0.1,0.4,0.2,0.9,0.7,0.9l3.3,0.6c0.4,0.1,0.9-0.2,0.9-0.7l0,0
				c0.1-0.4-0.2-0.9-0.7-0.9l-3.3-0.6C310.8,355.6,310.3,355.9,310.3,356.3z"/>
		</g>
		<g>
			<path class="st52" d="M307.5,364L307.5,364c-0.2,0.4-0.1,0.9,0.3,1.1l2.9,1.7c0.4,0.2,0.9,0.1,1.1-0.3l0,0
				c0.2-0.4,0.1-0.9-0.3-1.1l-2.9-1.7C308.2,363.5,307.7,363.6,307.5,364z"/>
		</g>
		<g>
			<path class="st52" d="M302.2,370.3L302.2,370.3c-0.3,0.3-0.4,0.8-0.1,1.1l2.2,2.6c0.3,0.3,0.8,0.4,1.1,0.1l0,0
				c0.3-0.3,0.4-0.8,0.1-1.1l-2.2-2.6C303.1,370,302.5,370,302.2,370.3z"/>
		</g>
		<g>
			<path class="st52" d="M295.1,374.4L295.1,374.4c-0.4,0.2-0.6,0.6-0.5,1l1.1,3.1c0.2,0.4,0.6,0.6,1,0.5l0,0c0.4-0.2,0.6-0.6,0.5-1
				l-1.1-3.1C296,374.4,295.5,374.2,295.1,374.4z"/>
		</g>
		<g>
			<path class="st52" d="M287,375.8L287,375.8c-0.4,0-0.8,0.4-0.8,0.8v3.3c0,0.4,0.4,0.8,0.8,0.8l0,0c0.4,0,0.8-0.4,0.8-0.8v-3.3
				C287.8,376.2,287.5,375.8,287,375.8z"/>
		</g>
		<g>
			<path class="st52" d="M279,374.4L279,374.4c-0.4-0.2-0.9,0.1-1,0.5l-1.1,3.1c-0.2,0.4,0.1,0.9,0.5,1l0,0c0.4,0.2,0.9-0.1,1-0.5
				l1.1-3.1C279.6,375,279.4,374.5,279,374.4z"/>
		</g>
		<g>
			<path class="st52" d="M271.9,370.3L271.9,370.3c-0.3-0.3-0.9-0.2-1.1,0.1l-2.1,2.6c-0.3,0.3-0.2,0.9,0.1,1.1l0,0
				c0.3,0.3,0.9,0.2,1.1-0.1l2.1-2.6C272.2,371.1,272.2,370.6,271.9,370.3z"/>
		</g>
		<g>
			<path class="st52" d="M266.6,364L266.6,364c-0.2-0.4-0.7-0.5-1.1-0.3l-2.9,1.7c-0.4,0.2-0.5,0.7-0.3,1.1l0,0
				c0.2,0.4,0.7,0.5,1.1,0.3l2.9-1.7C266.7,364.9,266.8,364.4,266.6,364z"/>
		</g>
		<g>
			<path class="st52" d="M263.8,356.3L263.8,356.3c-0.1-0.4-0.5-0.7-0.9-0.7l-3.3,0.6c-0.4,0.1-0.7,0.5-0.7,0.9l0,0
				c0.1,0.4,0.5,0.7,0.9,0.7l3.3-0.6C263.6,357.2,263.9,356.7,263.8,356.3z"/>
		</g>
		<g>
			<path class="st52" d="M263.8,348.1L263.8,348.1c0.1-0.4-0.2-0.9-0.7-0.9l-3.3-0.6c-0.4-0.1-0.9,0.2-0.9,0.7l0,0
				c-0.1,0.4,0.2,0.9,0.7,0.9l3.3,0.6C263.3,348.8,263.7,348.5,263.8,348.1z"/>
		</g>
		<g>
			<path class="st52" d="M266.6,340.4L266.6,340.4c0.2-0.4,0.1-0.9-0.3-1.1l-2.9-1.7c-0.4-0.2-0.9-0.1-1.1,0.3l0,0
				c-0.2,0.4-0.1,0.9,0.3,1.1l2.9,1.7C265.9,340.9,266.4,340.8,266.6,340.4z"/>
		</g>
		<g>
			<path class="st52" d="M271.9,334.1L271.9,334.1c0.3-0.3,0.4-0.8,0.1-1.1l-2.1-2.6c-0.3-0.3-0.8-0.4-1.1-0.1l0,0
				c-0.3,0.3-0.4,0.8-0.1,1.1l2.1,2.6C271,334.4,271.5,334.4,271.9,334.1z"/>
		</g>
		<g>
			<path class="st52" d="M279,330L279,330c0.4-0.2,0.6-0.6,0.5-1l-1.1-3.1c-0.2-0.4-0.6-0.6-1-0.5l0,0c-0.4,0.2-0.6,0.6-0.5,1
				l1.1,3.1C278.1,330,278.5,330.2,279,330z"/>
		</g>
	</g>
	<g>
		<path class="st53" d="M273.3,367.4L273.3,367.4c0.4,0.4,1.1,0.3,1.4-0.1l12.8-14c0.4-0.4,0.3-1.1-0.1-1.4l0,0
			c-0.4-0.4-1.1-0.3-1.4,0.1l-12.8,14C272.9,366.4,272.9,367,273.3,367.4z"/>
	</g>
	<g>
		
			<rect x="265.4" y="351.9" transform="matrix(-1 -1.224647e-16 1.224647e-16 -1 552.4126 704.3927)" class="st54" width="21.6" height="0.6"/>
	</g>
	<g>
		<path class="st53" d="M286.9,351.9h0.3c0.9,0,1.6-0.7,1.6-1.6v-14.1c0-0.9-0.7-1.6-1.6-1.6h-0.3c-0.9,0-1.6,0.7-1.6,1.6v14.1
			C285.2,351.2,286,351.9,286.9,351.9z"/>
	</g>
	<g>
		<circle class="st52" cx="286.6" cy="351.5" r="2.5"/>
	</g>
</g>
<g>
	<g>
		<g>
			<g>
				<g>
					<circle class="st17" cx="146.3" cy="59" r="44.3"/>
				</g>
			</g>
		</g>
	</g>
	<g>
		<g>
			<g>
				<g>
					<path class="st8" d="M146.3,97.5c-21.2,0-38.5-17.3-38.5-38.5s17.3-38.5,38.5-38.5c21.2,0,38.5,17.3,38.5,38.5
						S167.5,97.5,146.3,97.5z M146.3,29.6c-16.2,0-29.5,13.2-29.5,29.5c0,16.2,13.2,29.5,29.5,29.5c16.2,0,29.5-13.2,29.5-29.5
						C175.7,42.8,162.5,29.6,146.3,29.6z"/>
				</g>
			</g>
		</g>
	</g>
	<g>
		<g>
			<g>
				<g>
					<path class="st3" d="M146.3,80.9c-12.1,0-21.9-9.8-21.9-21.9c0-12.1,9.8-21.9,21.9-21.9c12.1,0,21.9,9.8,21.9,21.9
						C168.2,71.1,158.4,80.9,146.3,80.9z M146.3,46.2c-7.1,0-12.8,5.8-12.8,12.8c0,7.1,5.8,12.8,12.8,12.8c7.1,0,12.8-5.8,12.8-12.8
						C159.1,51.9,153.4,46.2,146.3,46.2z"/>
				</g>
			</g>
		</g>
	</g>
	<g>
		<g>
			<g>
				<g>
					<circle class="st55" cx="146.3" cy="59" r="6.4"/>
				</g>
			</g>
		</g>
	</g>
	<g>
		<g>
			<path class="st56" d="M207.5,59.8L207.5,59.8l-61.2,0c-0.9,0-1.6-0.7-1.6-1.6c0-0.9,0.7-1.6,1.6-1.6l0,0l61.2,0
				c0.9,0,1.6,0.7,1.6,1.6C209,59.1,208.3,59.8,207.5,59.8z"/>
		</g>
	</g>
	<g>
		<g>
			<g>
				<polygon class="st3" points="196.5,56.8 200.2,50.5 210.9,50.5 208.2,56.8 				"/>
			</g>
		</g>
	</g>
	<g>
		<g>
			<g>
				<polygon class="st3" points="196.5,59.7 200.2,66 210.9,66 208.2,59.7 				"/>
			</g>
		</g>
	</g>
</g>
<g>
	<g>
		<path class="st3" d="M108.9,132.2c0-14.3-11.7-26-26-26.1c-14.3,0.1-26,11.8-26,26.1c0,4.3,1.1,8.6,3.2,12.4v-6.9
			c0-1.3,0.5-2.5,1.2-3.5c-0.1-0.7-0.1-1.4-0.1-2.1c0-12,9.7-21.7,21.7-21.8c12,0.1,21.7,9.8,21.7,21.8c0,0.8,0,1.5-0.1,2.3
			c0.7,1,1.1,2.1,1.1,3.2v7.2C107.7,141.1,108.9,136.7,108.9,132.2z"/>
	</g>
	<g>
		<path class="st3" d="M61.7,136.7c-0.1,0.4-0.2,0.7-0.2,1.1v6.6v3.1c0,3,3.6,5.4,8,5.4h3.4v-20.6h-3.4
			C65.6,132.3,62.4,134.2,61.7,136.7z"/>
	</g>
	<g>
		<path class="st3" d="M96.1,132.3h-3.4V153h3.4c4.4,0,8-2.4,8-5.4v-3.2v-6.5c0-0.2,0-0.5-0.1-0.7
			C103.5,134.4,100.2,132.3,96.1,132.3z"/>
	</g>
</g>
<g>
	<g>
		<circle class="st39" cx="92.9" cy="439.2" r="26.3"/>
	</g>
	<g>
		<polygon class="st20" points="82.3,423.9 108.5,439.2 82.3,454.6 		"/>
	</g>
</g>
<g>
	<g>
		<path class="st57" d="M172.8,373.1c13.4,0,24.3-10.9,24.3-24.3s-10.9-24.3-24.3-24.3c-13.4,0-24.3,10.9-24.3,24.3
			S159.5,373.1,172.8,373.1z"/>
	</g>
	<g>
		<g>
			<path class="st20" d="M167,361.4c3.2,0,5.8-2.6,5.8-5.8c0-3.2-2.6-5.8-5.8-5.8c-3.2,0-5.8,2.6-5.8,5.8
				C161.2,358.8,163.8,361.4,167,361.4z"/>
		</g>
		<g>
			<path class="st20" d="M173.8,348.6c1.8,1.8,3,4.3,3,7h3.9c0-5.1-2.7-9.5-6.8-11.8V348.6L173.8,348.6z M173.8,339.3v-4
				c8.5,2.9,14.7,10.9,14.7,20.4h-3.8C184.7,348.3,180.2,341.9,173.8,339.3z M167,345.9c2.7,0,5.1,1.1,6.8,2.8v-4.8
				c-2-1.2-4.3-1.8-6.8-1.8V345.9L167,345.9z M173.8,335.2v4c-2.1-0.9-4.4-1.4-6.8-1.4v-3.8C169.3,334.1,171.6,334.5,173.8,335.2z"
				/>
		</g>
	</g>
</g>
<g>
	<g>
		<path class="st8" d="M320.8,403.4l-3,3.3l2.8,4.2l4.2-1.6c0.9,0.8,1.9,1.4,2.9,1.9l0.2,4.5l4.9,1l1.9-4.1c1.1-0.1,2.3-0.3,3.4-0.7
			l3.3,3l4.2-2.8l-1.6-4.2c0.8-0.9,1.4-1.9,1.9-2.9l4.5-0.2l1-4.9l-4.1-1.9c-0.1-1.1-0.3-2.3-0.7-3.4l3-3.3l-2.8-4.2l-4.2,1.6
			c-0.9-0.8-1.9-1.4-2.9-1.9l-0.2-4.5l-4.9-1l-1.9,4.1c-1.1,0.1-2.3,0.3-3.4,0.7l-3.3-3l-4.2,2.8l1.6,4.2c-0.8,0.9-1.4,1.9-1.9,2.9
			l-4.5,0.2l-1,4.9l4.1,1.9C320.2,401.2,320.4,402.3,320.8,403.4z M327.4,397.8c0.7-3.5,4-5.8,7.5-5.1c3.5,0.7,5.8,4,5.1,7.5
			c-0.7,3.5-4,5.8-7.5,5.1C329,404.7,326.7,401.3,327.4,397.8z"/>
	</g>
</g>
<g>
	<path class="st3" d="M382.8,403.8c-0.1-0.9-0.3-1.8-0.6-2.6l2.3-2.6l-2.2-3.1l-3.2,1.2c-0.7-0.6-1.4-1-2.2-1.4l-0.2-3.4l-3.8-0.7
		l-1.4,3.1c-0.9,0.1-1.7,0.3-2.6,0.6l-2.6-2.3l-3.1,2.2l1.2,3.2c-0.6,0.7-1,1.4-1.4,2.2l-3.4,0.2l-0.7,3.8l3.1,1.4
		c0.1,0.9,0.3,1.7,0.6,2.6l-2.3,2.6l2.2,3.1l3.2-1.2c0.7,0.6,1.4,1,2.2,1.4l0.2,3.4l3.8,0.7l1.4-3.1c0.9-0.1,1.8-0.3,2.6-0.6
		l2.6,2.3l3.1-2.2l-1.2-3.2c0.6-0.7,1-1.4,1.4-2.2l3.4-0.2l0.7-3.8L382.8,403.8z M375.3,408.7c-2.2,1.5-5.3,1-6.8-1.2
		c-1.5-2.2-1-5.3,1.2-6.8c2.2-1.5,5.3-1,6.8,1.2C378,404.2,377.5,407.2,375.3,408.7z"/>
</g>
<g>
	<path class="st8" d="M119.4,223.4c-0.1-0.9-0.3-1.8-0.6-2.6l2.3-2.6l-2.2-3.1l-3.2,1.2c-0.7-0.6-1.4-1-2.2-1.4l-0.2-3.4l-3.8-0.7
		l-1.4,3.1c-0.9,0.1-1.7,0.3-2.6,0.6l-2.6-2.3l-3.1,2.2l1.2,3.2c-0.6,0.7-1,1.4-1.4,2.2l-3.4,0.2l-0.7,3.8l3.1,1.4
		c0.1,0.9,0.3,1.7,0.6,2.6l-2.3,2.6l2.2,3.1l3.2-1.2c0.7,0.6,1.4,1,2.2,1.4l0.2,3.4l3.8,0.7l1.4-3.1c0.9-0.1,1.8-0.3,2.6-0.6
		l2.6,2.3l3.1-2.2L117,231c0.6-0.7,1-1.4,1.4-2.2l3.4-0.2l0.7-3.8L119.4,223.4z M111.9,228.3c-2.2,1.5-5.3,1-6.8-1.2
		c-1.5-2.2-1-5.3,1.2-6.8c2.2-1.5,5.3-1,6.8,1.2C114.6,223.7,114.1,226.8,111.9,228.3z"/>
</g>
<g>
	<path class="st5" d="M426.3,358c-0.1-0.9-0.3-1.8-0.6-2.6l2.3-2.6l-2.2-3.1l-3.2,1.2c-0.7-0.6-1.4-1-2.2-1.4l-0.2-3.4l-3.8-0.7
		l-1.4,3.1c-0.9,0.1-1.7,0.3-2.6,0.6l-2.6-2.3l-3.1,2.2l1.2,3.2c-0.6,0.7-1,1.4-1.4,2.2l-3.4,0.2l-0.7,3.8l3.1,1.4
		c0.1,0.9,0.3,1.7,0.6,2.6l-2.3,2.6l2.2,3.1l3.2-1.2c0.7,0.6,1.4,1,2.2,1.4l0.2,3.4l3.8,0.7l1.4-3.1c0.9-0.1,1.8-0.3,2.6-0.6
		l2.6,2.3l3.1-2.2l-1.2-3.2c0.6-0.7,1-1.4,1.4-2.2l3.4-0.2l0.7-3.8L426.3,358z M418.8,362.9c-2.2,1.5-5.3,1-6.8-1.2
		c-1.5-2.2-1-5.3,1.2-6.8c2.2-1.5,5.3-1,6.8,1.2C421.6,358.3,421,361.3,418.8,362.9z"/>
</g>
<g>
	<g>
		<rect x="132.2" y="389" class="st58" width="12.2" height="2.5"/>
	</g>
	<g>
		<rect x="132.2" y="395.1" class="st58" width="12.2" height="2.5"/>
	</g>
	<g>
		<rect x="148.1" y="389" class="st39" width="7.1" height="2.5"/>
	</g>
	<g>
		<rect x="148.1" y="395.1" class="st39" width="11" height="2.5"/>
	</g>
	<g>
		<rect x="158.6" y="389" class="st59" width="10.4" height="2.5"/>
	</g>
	<g>
		<rect x="171.1" y="389" class="st57" width="5.5" height="2.5"/>
	</g>
	<g>
		<rect x="179" y="389" class="st57" width="6.8" height="2.5"/>
	</g>
	<g>
		<rect x="169.8" y="395.1" class="st59" width="12.2" height="2.5"/>
	</g>
	<g>
		<rect x="132.2" y="401.3" class="st58" width="12.2" height="2.5"/>
	</g>
	<g>
		<rect x="132.2" y="407.4" class="st58" width="12.2" height="2.5"/>
	</g>
	<g>
		<rect x="148.1" y="401.3" class="st57" width="7.1" height="2.5"/>
	</g>
	<g>
		<rect x="148.1" y="407.4" class="st60" width="22.4" height="2.5"/>
	</g>
	<g>
		<rect x="158.6" y="401.3" class="st59" width="13.6" height="2.5"/>
	</g>
	<g>
		<rect x="174.9" y="401.3" class="st59" width="7.1" height="2.5"/>
	</g>
	<g>
		<rect x="185.1" y="401.3" class="st59" width="8.8" height="2.5"/>
	</g>
	<g>
		<rect x="173.2" y="407.4" class="st39" width="12.6" height="2.5"/>
	</g>
	<g>
		<rect x="161.6" y="395.1" class="st59" width="5.2" height="2.5"/>
	</g>
</g>
<g>
	<g>
		<rect x="205.3" y="15.8" class="st58" width="12.2" height="2.5"/>
	</g>
	<g>
		<rect x="205.3" y="22" class="st58" width="12.2" height="2.5"/>
	</g>
	<g>
		<rect x="221.3" y="15.8" class="st39" width="7.1" height="2.5"/>
	</g>
	<g>
		<rect x="221.3" y="22" class="st39" width="11" height="2.5"/>
	</g>
	<g>
		<rect x="231.8" y="15.8" class="st59" width="10.4" height="2.5"/>
	</g>
	<g>
		<rect x="244.3" y="15.8" class="st57" width="5.5" height="2.5"/>
	</g>
	<g>
		<rect x="252.1" y="15.8" class="st57" width="6.8" height="2.5"/>
	</g>
	<g>
		<rect x="243" y="22" class="st59" width="12.2" height="2.5"/>
	</g>
	<g>
		<rect x="205.3" y="28.1" class="st58" width="12.2" height="2.5"/>
	</g>
	<g>
		<rect x="205.3" y="34.3" class="st58" width="12.2" height="2.5"/>
	</g>
	<g>
		<rect x="221.3" y="28.1" class="st57" width="7.1" height="2.5"/>
	</g>
	<g>
		<rect x="221.3" y="34.3" class="st60" width="22.4" height="2.5"/>
	</g>
	<g>
		<rect x="231.8" y="28.1" class="st59" width="13.6" height="2.5"/>
	</g>
	<g>
		<rect x="248.1" y="28.1" class="st59" width="7.1" height="2.5"/>
	</g>
	<g>
		<rect x="258.2" y="28.1" class="st59" width="8.8" height="2.5"/>
	</g>
	<g>
		<rect x="246.4" y="34.3" class="st39" width="12.6" height="2.5"/>
	</g>
	<g>
		<rect x="234.7" y="22" class="st59" width="5.2" height="2.5"/>
	</g>
</g>
<g>
	<g>
		<rect x="48.5" y="19" class="st39" width="7.1" height="2.5"/>
	</g>
	<g>
		<rect x="48.5" y="25.1" class="st39" width="11" height="2.5"/>
	</g>
	<g>
		<rect x="59" y="19" class="st59" width="10.4" height="2.5"/>
	</g>
	<g>
		<rect x="71.5" y="19" class="st57" width="5.5" height="2.5"/>
	</g>
	<g>
		<rect x="79.4" y="19" class="st57" width="6.8" height="2.5"/>
	</g>
	<g>
		<rect x="70.2" y="25.1" class="st59" width="12.2" height="2.5"/>
	</g>
	<g>
		<rect x="48.5" y="31.3" class="st57" width="7.1" height="2.5"/>
	</g>
	<g>
		<rect x="48.5" y="37.4" class="st60" width="22.4" height="2.5"/>
	</g>
	<g>
		<rect x="59" y="31.3" class="st59" width="13.6" height="2.5"/>
	</g>
	<g>
		<rect x="75.3" y="31.3" class="st59" width="7.1" height="2.5"/>
	</g>
	<g>
		<rect x="85.5" y="31.3" class="st59" width="8.8" height="2.5"/>
	</g>
	<g>
		<rect x="73.6" y="37.4" class="st39" width="12.6" height="2.5"/>
	</g>
	<g>
		<rect x="61.9" y="25.1" class="st59" width="5.2" height="2.5"/>
	</g>
</g>
<g>
	<g>
		<rect x="417.1" y="392.6" class="st58" width="12.2" height="2.5"/>
	</g>
	<g>
		<rect x="417.1" y="398.8" class="st58" width="12.2" height="2.5"/>
	</g>
	<g>
		<rect x="433" y="392.6" class="st39" width="7.1" height="2.5"/>
	</g>
	<g>
		<rect x="433" y="398.8" class="st39" width="11" height="2.5"/>
	</g>
	<g>
		<rect x="443.5" y="392.6" class="st59" width="10.4" height="2.5"/>
	</g>
	<g>
		<rect x="456" y="392.6" class="st57" width="5.5" height="2.5"/>
	</g>
	<g>
		<rect x="463.9" y="392.6" class="st57" width="6.8" height="2.5"/>
	</g>
	<g>
		<rect x="454.7" y="398.8" class="st59" width="12.2" height="2.5"/>
	</g>
	<g>
		<rect x="417.1" y="405" class="st58" width="12.2" height="2.5"/>
	</g>
	<g>
		<rect x="417.1" y="411.1" class="st58" width="12.2" height="2.5"/>
	</g>
	<g>
		<rect x="433" y="405" class="st57" width="7.1" height="2.5"/>
	</g>
	<g>
		<rect x="433" y="411.1" class="st60" width="22.4" height="2.5"/>
	</g>
	<g>
		<rect x="443.5" y="405" class="st59" width="13.6" height="2.5"/>
	</g>
	<g>
		<rect x="459.8" y="405" class="st59" width="7.1" height="2.5"/>
	</g>
	<g>
		<rect x="470" y="405" class="st59" width="8.8" height="2.5"/>
	</g>
	<g>
		<rect x="458.1" y="411.1" class="st39" width="12.6" height="2.5"/>
	</g>
	<g>
		<rect x="446.5" y="398.8" class="st59" width="5.2" height="2.5"/>
	</g>
</g>
<g>
	<g>
		<rect x="44.3" y="202.8" class="st39" width="7.1" height="2.5"/>
	</g>
	<g>
		<rect x="44.3" y="209" class="st39" width="11" height="2.5"/>
	</g>
	<g>
		<rect x="54.8" y="202.8" class="st59" width="10.4" height="2.5"/>
	</g>
	<g>
		<rect x="67.3" y="202.8" class="st57" width="5.5" height="2.5"/>
	</g>
	<g>
		<rect x="75.2" y="202.8" class="st57" width="6.8" height="2.5"/>
	</g>
	<g>
		<rect x="66" y="209" class="st59" width="12.2" height="2.5"/>
	</g>
	<g>
		<rect x="44.3" y="215.1" class="st57" width="7.1" height="2.5"/>
	</g>
	<g>
		<rect x="44.3" y="221.3" class="st60" width="22.4" height="2.5"/>
	</g>
	<g>
		<rect x="54.8" y="215.1" class="st59" width="13.6" height="2.5"/>
	</g>
	<g>
		<rect x="71.1" y="215.1" class="st59" width="7.1" height="2.5"/>
	</g>
	<g>
		<rect x="81.3" y="215.1" class="st59" width="8.8" height="2.5"/>
	</g>
	<g>
		<rect x="69.4" y="221.3" class="st39" width="12.6" height="2.5"/>
	</g>
	<g>
		<rect x="57.7" y="209" class="st59" width="5.2" height="2.5"/>
	</g>
</g>
<g>
	<g>
		<rect x="399.2" class="st39" width="7.1" height="2.5"/>
	</g>
	<g>
		<rect x="399.2" y="6.2" class="st39" width="11" height="2.5"/>
	</g>
	<g>
		<rect x="409.7" class="st59" width="10.4" height="2.5"/>
	</g>
	<g>
		<rect x="422.2" class="st57" width="5.5" height="2.5"/>
	</g>
	<g>
		<rect x="430.1" class="st57" width="6.8" height="2.5"/>
	</g>
	<g>
		<rect x="420.9" y="6.2" class="st59" width="12.2" height="2.5"/>
	</g>
	<g>
		<rect x="399.2" y="12.3" class="st57" width="7.1" height="2.5"/>
	</g>
	<g>
		<rect x="399.2" y="18.5" class="st60" width="22.4" height="2.5"/>
	</g>
	<g>
		<rect x="409.7" y="12.3" class="st59" width="13.6" height="2.5"/>
	</g>
	<g>
		<rect x="426" y="12.3" class="st59" width="7.1" height="2.5"/>
	</g>
	<g>
		<rect x="436.2" y="12.3" class="st59" width="8.8" height="2.5"/>
	</g>
	<g>
		<rect x="424.3" y="18.5" class="st39" width="12.6" height="2.5"/>
	</g>
	<g>
		<rect x="412.6" y="6.2" class="st59" width="5.2" height="2.5"/>
	</g>
</g>
<g>
	<rect x="360.5" y="372.9" class="st61" width="1.2" height="3.9"/>
	<line class="st61" x1="423.4" y1="387.5" x2="423.4" y2="388.7"/>
	<rect x="360.5" y="365.1" class="st61" width="1.2" height="3.9"/>
	<rect x="360.5" y="357.3" class="st61" width="1.2" height="3.9"/>
	<rect x="415.7" y="387.5" class="st61" width="3.9" height="1.2"/>
	<rect x="376.9" y="387.5" class="st61" width="3.9" height="1.2"/>
	<rect x="369.1" y="387.5" class="st61" width="3.9" height="1.2"/>
	<rect x="407.9" y="387.5" class="st61" width="3.9" height="1.2"/>
	<rect x="360.5" y="380.6" class="st61" width="1.2" height="3.9"/>
	<rect x="384.6" y="387.5" class="st61" width="3.9" height="1.2"/>
	<rect x="400.2" y="387.5" class="st61" width="3.9" height="1.2"/>
	<rect x="392.4" y="387.5" class="st61" width="3.9" height="1.2"/>
	<rect x="361.3" y="387.5" class="st61" width="3.9" height="1.2"/>
	<rect x="360.5" y="349.6" class="st61" width="1.2" height="3.9"/>
	
		<rect x="74.3" y="102.6" transform="matrix(2.416257e-03 -1 1 2.416257e-03 -28.2427 178.0069)" class="st61" width="1.7" height="1.2"/>
	
		<rect x="73.2" y="95.9" transform="matrix(2.499576e-03 -1 1 2.499576e-03 -21.5803 171.3755)" class="st61" width="3.9" height="1.2"/>
	
		<rect x="73.2" y="88.1" transform="matrix(1.999663e-03 -1 1 1.999663e-03 -13.7618 163.6924)" class="st61" width="3.9" height="1.2"/>
	<polygon class="st61" points="74.6,58.7 74.6,59.6 75.2,59.6 75.2,59.9 78.7,59.8 78.7,58.6 	"/>
	<rect x="98.1" y="58.4" transform="matrix(1 -8.911856e-03 8.911856e-03 1 -0.522 0.894)" class="st61" width="3.9" height="1.2"/>
	
		<rect x="82.6" y="58.6" transform="matrix(1 -8.914826e-03 8.914826e-03 1 -0.5241 0.7559)" class="st61" width="3.9" height="1.2"/>
	
		<rect x="90.4" y="58.5" transform="matrix(1 -8.999612e-03 8.999612e-03 1 -0.5281 0.833)" class="st61" width="3.9" height="1.2"/>
	
		<rect x="73.2" y="80.4" transform="matrix(2.416257e-03 -1 1 2.416257e-03 -6.0122 155.9274)" class="st61" width="3.9" height="1.2"/>
	
		<rect x="73.2" y="72.6" transform="matrix(2.416257e-03 -1 1 2.416257e-03 1.769 148.1992)" class="st61" width="3.9" height="1.2"/>
	
		<rect x="73.2" y="64.8" transform="matrix(1.999656e-03 -1 1 1.999656e-03 9.5809 140.4983)" class="st61" width="3.9" height="1.2"/>
	<rect x="258.2" y="41" class="st61" width="3.9" height="1.2"/>
	<rect x="250.4" y="41" class="st61" width="3.9" height="1.2"/>
	<rect x="273.7" y="41" class="st61" width="3.9" height="1.2"/>
	<rect x="265.9" y="41" class="st61" width="3.9" height="1.2"/>
	<rect x="281.5" y="41" class="st61" width="3.9" height="1.2"/>
	<rect x="248.7" y="75.4" class="st61" width="1.2" height="3.9"/>
	<rect x="248.7" y="83.2" class="st61" width="1.2" height="3.9"/>
	<rect x="248.7" y="59.9" class="st61" width="1.2" height="3.9"/>
	<rect x="248.7" y="44.3" class="st61" width="1.2" height="3.9"/>
	<rect x="248.7" y="67.6" class="st61" width="1.2" height="3.9"/>
	<rect x="248.7" y="52.1" class="st61" width="1.2" height="3.9"/>
	<rect x="304.8" y="41" class="st61" width="3.9" height="1.2"/>
	<rect x="312.5" y="41" class="st61" width="1.6" height="1.2"/>
	<rect x="289.2" y="41" class="st61" width="3.9" height="1.2"/>
	<rect x="297" y="41" class="st61" width="3.9" height="1.2"/>
	<rect x="215.4" y="295.4" class="st61" width="1.2" height="3.9"/>
	<rect x="215.4" y="287.6" class="st61" width="1.2" height="3.9"/>
	<rect x="215.5" y="365.2" class="st61" width="1.2" height="3.9"/>
	<rect x="215.4" y="279.8" class="st61" width="1.2" height="3.9"/>
	<rect x="215.5" y="380.8" class="st61" width="1.2" height="3.4"/>
	
		<rect x="215.5" y="349.7" transform="matrix(1 -1.583068e-03 1.583068e-03 1 -0.5564 0.3425)" class="st61" width="1.2" height="3.9"/>
	<rect x="215.5" y="373" class="st61" width="1.2" height="3.9"/>
	<rect x="215.5" y="357.5" class="st61" width="1.2" height="3.9"/>
	
		<rect x="215.4" y="303.1" transform="matrix(1 -1.666525e-03 1.666525e-03 1 -0.5081 0.3605)" class="st61" width="1.2" height="3.9"/>
	<rect x="215.5" y="334.2" class="st61" width="1.2" height="3.9"/>
	<rect x="215.5" y="342" class="st61" width="1.2" height="3.9"/>
	<rect x="215.5" y="318.7" class="st61" width="1.2" height="3.9"/>
	<rect x="215.5" y="326.4" class="st61" width="1.2" height="3.9"/>
	<rect x="215.5" y="310.9" class="st61" width="1.2" height="3.9"/>
	<rect x="81.1" y="208.8" class="st61" width="3.9" height="1.2"/>
	<rect x="96.7" y="208.8" class="st61" width="3.9" height="1.2"/>
	<rect x="88.9" y="208.8" class="st61" width="3.9" height="1.2"/>
	<rect x="77.1" y="208.8" class="st61" width="0.2" height="1.2"/>
	<rect x="104.4" y="208.8" class="st61" width="3.9" height="1.2"/>
	<rect x="127.7" y="208.8" class="st61" width="3.9" height="1.2"/>
	<rect x="120" y="208.8" class="st61" width="3.9" height="1.2"/>
	<rect x="112.2" y="208.8" class="st61" width="3.9" height="1.2"/>
	<rect x="72" y="400.9" class="st61" width="3.9" height="1.2"/>
	<rect x="64.2" y="400.9" class="st61" width="3.9" height="1.2"/>
	<rect x="79.8" y="400.9" class="st61" width="3.9" height="1.2"/>
	<rect x="110.8" y="400.9" class="st61" width="3.9" height="1.2"/>
	<rect x="118.6" y="400.9" class="st61" width="3.9" height="1.2"/>
	<rect x="126.3" y="400.9" class="st61" width="2.4" height="1.2"/>
	<rect x="95.3" y="400.9" class="st61" width="3.9" height="1.2"/>
	<rect x="87.5" y="400.9" class="st61" width="3.9" height="1.2"/>
	<rect x="103.1" y="400.9" class="st61" width="3.9" height="1.2"/>
	
		<rect x="412.8" y="24.5" transform="matrix(1 -1.999663e-03 1.999663e-03 1 -5.207990e-02 0.8267)" class="st61" width="1.2" height="3.9"/>
	
		<rect x="412.8" y="32.3" transform="matrix(1 -2.498833e-03 2.498833e-03 1 -8.422364e-02 1.0332)" class="st61" width="1.2" height="3.9"/>
</g>
<g>
	<g>
		<rect x="211" y="390.1" class="st58" width="12.2" height="2.5"/>
	</g>
	<g>
		<rect x="211" y="396.3" class="st58" width="12.2" height="2.5"/>
	</g>
	<g>
		<rect x="227" y="390.1" class="st39" width="7.1" height="2.5"/>
	</g>
	<g>
		<rect x="227" y="396.3" class="st39" width="11" height="2.5"/>
	</g>
	<g>
		<rect x="237.5" y="390.1" class="st59" width="10.4" height="2.5"/>
	</g>
	<g>
		<rect x="250" y="390.1" class="st57" width="5.5" height="2.5"/>
	</g>
	<g>
		<rect x="257.8" y="390.1" class="st57" width="6.8" height="2.5"/>
	</g>
	<g>
		<rect x="248.7" y="396.3" class="st59" width="12.2" height="2.5"/>
	</g>
	<g>
		<rect x="211" y="402.4" class="st58" width="12.2" height="2.5"/>
	</g>
	<g>
		<rect x="211" y="408.6" class="st58" width="12.2" height="2.5"/>
	</g>
	<g>
		<rect x="227" y="402.4" class="st57" width="7.1" height="2.5"/>
	</g>
	<g>
		<rect x="227" y="408.6" class="st60" width="22.4" height="2.5"/>
	</g>
	<g>
		<rect x="237.5" y="402.4" class="st59" width="13.6" height="2.5"/>
	</g>
	<g>
		<rect x="253.8" y="402.4" class="st59" width="7.1" height="2.5"/>
	</g>
	<g>
		<rect x="263.9" y="402.4" class="st59" width="8.8" height="2.5"/>
	</g>
	<g>
		<rect x="252.1" y="408.6" class="st39" width="12.6" height="2.5"/>
	</g>
	<g>
		<rect x="240.4" y="396.3" class="st59" width="5.2" height="2.5"/>
	</g>
</g>
<g>
	<g>
		<path class="st56" d="M260,66.8l-2.4,2.6l2.2,3.3l3.4-1.3c0.7,0.6,1.5,1.1,2.3,1.5l0.2,3.6l3.9,0.8l1.5-3.3
			c0.9-0.1,1.8-0.3,2.7-0.6l2.6,2.4l3.3-2.2l-1.3-3.4c0.6-0.7,1.1-1.5,1.5-2.3l3.6-0.2l0.8-3.9l-3.3-1.5c-0.1-0.9-0.3-1.8-0.6-2.7
			l2.4-2.6l-2.2-3.3l-3.4,1.2c-0.7-0.6-1.5-1.1-2.3-1.5l-0.2-3.6l-3.9-0.8l-1.5,3.3c-0.9,0.1-1.8,0.3-2.7,0.6l-2.6-2.4l-3.3,2.2
			l1.3,3.4c-0.6,0.7-1.1,1.5-1.5,2.3l-3.6,0.2l-0.8,3.9l3.3,1.5C259.5,65,259.7,65.9,260,66.8z M265.2,62.3c0.5-2.8,3.2-4.6,6-4
			c2.8,0.5,4.6,3.2,4,6c-0.5,2.8-3.2,4.6-6,4C266.5,67.7,264.7,65.1,265.2,62.3z"/>
	</g>
</g>
<g>
	<g>
		<path class="st3" d="M183.4,471l-2.4,2.6l2.2,3.3l3.4-1.3c0.7,0.6,1.5,1.1,2.3,1.5l0.2,3.6l3.9,0.8l1.5-3.3
			c0.9-0.1,1.8-0.3,2.7-0.6l2.6,2.4l3.3-2.2l-1.3-3.4c0.6-0.7,1.1-1.5,1.5-2.3l3.6-0.2l0.8-3.9l-3.3-1.5c-0.1-0.9-0.3-1.8-0.6-2.7
			l2.4-2.6l-2.2-3.3l-3.4,1.2c-0.7-0.6-1.5-1.1-2.3-1.5l-0.2-3.6l-3.9-0.8l-1.5,3.3c-0.9,0.1-1.8,0.3-2.7,0.6l-2.6-2.4l-3.3,2.2
			l1.3,3.4c-0.6,0.7-1.1,1.5-1.5,2.3l-3.6,0.2l-0.8,3.9l3.3,1.5C182.9,469.2,183.1,470.1,183.4,471z M188.7,466.5
			c0.5-2.8,3.2-4.6,6-4c2.8,0.5,4.6,3.2,4,6c-0.5,2.8-3.2,4.6-6,4C189.9,472,188.1,469.3,188.7,466.5z"/>
	</g>
</g>
<g>
	<g>
		<path class="st62" d="M34,169.6l-2.4,2.6l2.2,3.3l3.4-1.3c0.7,0.6,1.5,1.1,2.3,1.5l0.2,3.6l3.9,0.8l1.5-3.3
			c0.9-0.1,1.8-0.3,2.7-0.6l2.6,2.4l3.3-2.2l-1.3-3.4c0.6-0.7,1.1-1.5,1.5-2.3l3.6-0.2l0.8-3.9l-3.3-1.5c-0.1-0.9-0.3-1.8-0.6-2.7
			l2.4-2.6l-2.2-3.3l-3.4,1.2c-0.7-0.6-1.5-1.1-2.3-1.5l-0.2-3.6L45,152l-1.5,3.3c-0.9,0.1-1.8,0.3-2.7,0.6l-2.6-2.4l-3.3,2.2
			l1.3,3.4c-0.6,0.7-1.1,1.5-1.5,2.3l-3.6,0.2l-0.8,3.9l3.3,1.5C33.6,167.8,33.7,168.7,34,169.6z M39.3,165.1c0.5-2.8,3.2-4.6,6-4
			c2.8,0.5,4.6,3.2,4,6c-0.5,2.8-3.2,4.6-6,4C40.6,170.6,38.7,167.9,39.3,165.1z"/>
	</g>
</g>
<g>
	<g>
		<path class="st6" d="M438.1,370.3l-2.4,2.6l2.2,3.3l3.4-1.3c0.7,0.6,1.5,1.1,2.3,1.5l0.2,3.6l3.9,0.8l1.5-3.3
			c0.9-0.1,1.8-0.3,2.7-0.6l2.6,2.4l3.3-2.2l-1.3-3.4c0.6-0.7,1.1-1.5,1.5-2.3l3.6-0.2l0.8-3.9l-3.3-1.5c-0.1-0.9-0.3-1.8-0.6-2.7
			l2.4-2.6l-2.2-3.3l-3.4,1.2c-0.7-0.6-1.5-1.1-2.3-1.5l-0.2-3.6l-3.9-0.8l-1.5,3.3c-0.9,0.1-1.8,0.3-2.7,0.6l-2.6-2.4l-3.3,2.2
			l1.3,3.4c-0.6,0.7-1.1,1.5-1.5,2.3l-3.6,0.2l-0.8,3.9l3.3,1.5C437.6,368.5,437.8,369.4,438.1,370.3z M443.4,365.9
			c0.5-2.8,3.2-4.6,6-4c2.8,0.5,4.6,3.2,4,6c-0.5,2.8-3.2,4.6-6,4C444.6,371.3,442.8,368.6,443.4,365.9z"/>
	</g>
</g>
<g>
	<g>
		<path class="st62" d="M272.1,95.6l-2.4,2.6l2.2,3.3l3.4-1.3c0.7,0.6,1.5,1.1,2.3,1.5l0.2,3.6l3.9,0.8l1.5-3.3
			c0.9-0.1,1.8-0.3,2.7-0.6l2.6,2.4l3.3-2.2l-1.3-3.4c0.6-0.7,1.1-1.5,1.5-2.3l3.6-0.2l0.8-3.9l-3.3-1.5c-0.1-0.9-0.3-1.8-0.6-2.7
			l2.4-2.6l-2.2-3.3l-3.4,1.2c-0.7-0.6-1.5-1.1-2.3-1.5l-0.2-3.6L283,78l-1.5,3.3c-0.9,0.1-1.8,0.3-2.7,0.6l-2.6-2.4l-3.3,2.2
			l1.3,3.4c-0.6,0.7-1.1,1.5-1.5,2.3l-3.6,0.2l-0.8,3.9l3.3,1.5C271.6,93.8,271.8,94.7,272.1,95.6z M277.3,91.1c0.5-2.8,3.2-4.6,6-4
			c2.8,0.5,4.6,3.2,4,6c-0.5,2.8-3.2,4.6-6,4C278.6,96.6,276.8,93.9,277.3,91.1z"/>
	</g>
</g>
<g>
	<g>
		<path class="st3" d="M48.3,299.2l-2,2.2l1.9,2.8l2.8-1c0.6,0.5,1.2,0.9,1.9,1.3l0.1,3l3.3,0.6l1.2-2.7c0.8-0.1,1.5-0.2,2.3-0.5
			l2.2,2l2.8-1.9l-1-2.8c0.5-0.6,0.9-1.2,1.3-1.9l3-0.1l0.6-3.3l-2.7-1.2c-0.1-0.8-0.2-1.5-0.5-2.3l2-2.2l-1.9-2.8l-2.8,1
			c-0.6-0.5-1.2-0.9-1.9-1.3l-0.1-3l-3.3-0.6l-1.2,2.7c-0.8,0.1-1.5,0.2-2.3,0.5l-2.2-2l-2.8,1.9l1,2.8c-0.5,0.6-0.9,1.2-1.3,1.9
			l-3,0.1l-0.6,3.3l2.7,1.2C47.9,297.7,48.1,298.5,48.3,299.2z M52.7,295.5c0.4-2.3,2.7-3.8,5-3.4c2.3,0.4,3.8,2.7,3.4,5
			c-0.4,2.3-2.7,3.8-5,3.4C53.8,300.1,52.3,297.8,52.7,295.5z"/>
	</g>
</g>
<path class="st3" d="M190.2,251.5c-0.1-1.5-0.4-2.9-0.9-4.4l3.9-4.3l-3.6-5.3l-5.4,2c-1.1-1-2.4-1.8-3.7-2.5l-0.3-5.8l-6.3-1.2
	l-2.4,5.3c-1.5,0.1-2.9,0.4-4.4,0.9l-4.3-3.9l-5.4,3.6l2,5.4c-1,1.1-1.8,2.4-2.5,3.7l-5.8,0.3l-1.2,6.3l5.3,2.4
	c0.1,1.5,0.4,2.9,0.9,4.4l-3.9,4.3l3.6,5.3l5.4-2c1.1,1,2.4,1.8,3.7,2.5l0.3,5.8l6.3,1.2l2.4-5.3c1.5-0.1,2.9-0.4,4.4-0.9l4.3,3.9
	l5.4-3.6l-2-5.4c1-1.1,1.8-2.4,2.5-3.7l5.8-0.3l1.2-6.3L190.2,251.5z M180.8,254.4c-0.9,4.5-5.2,7.4-9.7,6.5
	c-4.5-0.9-7.4-5.2-6.5-9.7c0.9-4.5,5.2-7.4,9.7-6.5C178.8,245.6,181.7,249.9,180.8,254.4z"/>
<g>
</g>
<g>
</g>
<g>
</g>
<g>
</g>
<g>
</g>
<g>
</g>
<g>
</g>
<g>
</g>
<g>
</g>
<g>
</g>
<g>
</g>
<g>
</g>
<g>
</g>
<g>
</g>
<g>
</g>
</svg>
